<mxfile host="app.diagrams.net" agent="Mozilla/5.0 (Windows NT 10.0; Win64; x64; rv:139.0) Gecko/20100101 Firefox/139.0" version="27.1.6">
  <diagram id="C5RBs43oDa-KdzZeNtuy" name="Page-1">
    <mxGraphModel dx="1042" dy="571" grid="1" gridSize="10" guides="1" tooltips="1" connect="1" arrows="1" fold="1" page="1" pageScale="1" pageWidth="827" pageHeight="1169" math="0" shadow="0">
      <root>
        <mxCell id="WIyWlLk6GJQsqaUBKTNV-0" />
        <mxCell id="WIyWlLk6GJQsqaUBKTNV-1" parent="WIyWlLk6GJQsqaUBKTNV-0" />
        <mxCell id="uRgjP5q4xGQD5XWLYXV3-0" value="" style="shape=image;verticalLabelPosition=bottom;labelBackgroundColor=default;verticalAlign=top;aspect=fixed;imageAspect=0;image=data:image/png,iVBORw0KGgoAAAANSUhEUgAAAq0AAALMCAYAAADO9ItUAAAgAElEQVR4XuydB5gUVbbHzygIGPatcRPikgQUzAEwoqwCouKKqCugIoIBJCgYUUmiIklBAUEBA0mUIFHMBMUsCsgQXEyrz/AWlUXBndenpmuo7r5V093Toar6V9/nt65TXX37f88991fnnntuUUnkEsf13//+V3755RepVq2a8z8n/PuGDRukTp06rvfoM3bffXepVKmS6z3/+c9/pEqVKrLbbrsZ76Et6OI0DOzFPJTQBV1sBfC7ZltAF3RxKgC/mO0hCLoUAa2lncfEz8TPxM+LqGkUBMGRY7vYLrYrQqAr/IEuoDU60oFWoJWJn4mfiZ+Jn5W/2FHA3Mjc6Ke5EWgFWknhiPNJLCWylMhSIili8aOAKF74o3h+gjPaYg6iAK1AK9AKtFoKsAwe3DwvJjhWCVglYJWgEFYJirZt2xazEcvsthP/65YtW6RGjRrJ3p7V+2iLWV50QZdUBh72gr1gL6kogL2kohb+BXvJhL0U/fbbbwnVA3bs2GHt6ve6Nm7cKLVr13a9RZ9RVFTkGcXTZdjKlSt7Vg+gLYkS6zIVuqCLM7rGOEq0B/yL2T2jC7rYCjBPm20BXfyrC+kB0b4h2dxspOiCLiw9s/TM0jNLz4Ww9Iyv87+vA1qBVnJa42ZkNmK5R6KovWyO6KILutgKkBtu9h/ogi6qQEU3NAKtQCvQCrRaCjCpMKlkYlIhWuX/aBV9RB8FdfUEaAVagVagFWg18yq6oEuZAhWNEAGKgGJQQdFPtgu0Aq1AK9AKnAFnwBnHihtHAfsazM4BXfKjC9AKtAKtQCvQCrQCrUAr0BpVgH0NZofoB12yWvJKdxvqBgW3K5elV2hLYi9oWQ90QRdbgWTK2GEv2Av2UvFykIwjxhHjKL1xxOECHhGWdP5EAWWzauiCLqmMJ+wFe8FeUlEAe0lFLfxLcO2F9ADSA0gPID2A9ADSA0gPID2A9ADSA6ROnTqeq+P5Lu8HtAKtQCvQCrQCrUAr0Aq0Aq1Aa6VKlVynA3bfmaVBF3SxFfBD4jttoVSPaURS19fsp9AFXVQBSqTtZjSEiupCpJVIK5FWIq1EWom0Emkl0kqklUgrkVYirbF+gMiZmQ7QBV2cChCtIlpFtKqKVd3FdFU0WsXqCasnQV09IdJKpJVIK5FWIq1EWom0Emkl0kqklUgrkVYiraoAkTMiZ0TOiJzFjwLy981+AV3QhWi4ORpOpJVIK5FWIq1EWom0Emkl0kqklUir/yOtxcXFJU5LLSkpsXa9eZ1kpffrm2C1atVcXb0+R6+ioiLXe3777TcrZ8ftHtpi1g5d0MU5qBhHZheDLuhiK8B8ZLYFdEEXpwJB4DoirURaibQSaSXSSqSVSCuRViKtRFr9H2mNvGnFRFrZlchuzfg3rypVyMWL9+bknJkpD13QxVaAiiBmW0AXdHEqwH4Psz246UKklUgrkVYirURaibQSaSXSSqSVSCuRVqoHxPoB3rJ5y+Yt+xfPfHjVh+hDatEHopvU3TRZDOOIcaQKhGkFnUgrkVYirURaibQSaSXSSqSVSCuRViKtRFqJtBI5cyciIiFEQsIWCSHqS9SXqG+4opt+GtNEWom0Emkl0kqklUgrkVYirURaibT6P9K6ffv2mOoB9lu/25nHtlVv2bJFatSo4erqk6n/pnkW5X1PMvfQFnM3oAu62Aowjsy2gC7oksoYwV6wF+zFu/5+MmMkmXvc+KVox44dCSWvtCh35cqVPWIPIps3b5aaNWu63rNz507r0ACvQwoi32393Q1c9YfRlkSJ0cW9LBn2gr3YCuTKv2zbtk1Wr14t//znPy2/+PPPP8umTZus/9V/9tlnH/n1119l7733lkMOOcTahKa+s1atWlKvXj058MADrY0S2C62m2vbZZ42Iwy6+FcX0gNIDyA9gPQA0gNSTA9455135JVXXpEVK1bIhx9+KI0bN5bq1atbIHrooYeK1jbea6+9rH80r/+nn36y/lF4VaC1//n++++t/9akSRPrGS1btvQMFpADbZYHXdDFXiXWCj1ep3XqfdhLcO0FaAVagVagFWhNAlq//PJLeeaZZ2TWrFnSqFEjK0ratGlTOfbYYz1Bs7w/rl+/3oJfBdlnn31W/v73v0vbtm3liCOOSPgok21wJ1u75ZQ9NPchuqCLUwEOF4ikIVDJIHZQ4CRwEsk4iUKfbJcuXSrz5s2TrVu3WiCpUKnL/Nm4NJ1AoVgh9ocffpDrr79eTj311LKvAlqBViKKnNAYPwoK6SRCIq1EWoF5Iq1EWg0s9O2338qoUaPk9ddfl169esn555+fDU51feabb74pDz/8sLU3oFu3bnLcccexrOmiFjAPzAPzhQHzQCvQCrQCrUBrnA2MHj1aJk2aJPfff7+cccYZOYXV+C9bs2aN3HXXXVa1ls6dO0uDBg1c28PqCasnrJ6Q0xo/CjgRK6IIb7a82fJmWxhvtoWUHvDFF19Iv3795LDDDpObbropr7Aa/+WaNjB+/Hi5+eabXUEaaAVagVagFWg1+AGgFWgFWoHWMOVWKRQOHz5cpk+fblUC8OvVqVMnqwD4bbfdltBEoBVoBVqB1lBDa6TGYMLhAsk46/IK1yfzjEzdQ1vMSqILuqQyxgrZXoYNGyZafkqhNQjXuHHj5IMPPhBtd76uQrYXL83RBb+bypjEXlKzl6JIQeuEwwW0KLfWGfS6Nm7cKLVr13a9RZ+hGwi8duxrVEAPMfA6XIC2JEqs+Snogi62Aowj9+haMv5Fl9tPPPFEueyyy1KZa/J+r9aH7d69u7z88stlbcHvmrsFXdDFqQD8YraHIOjCRqxo3xVSyQgn7OiJZJQCix3ALLG6Q2DY7OW+++6z6q1qGasgXhqlueKKK+Sll16ymo/tFo7tUkTfHLhAl3DrArQCrUBr3Bhn4i+MiV934p900kly5ZVXBpFXy9qshx60atVK3n//faDVpScZ04UxpsO0S57g0gYrdz/+AlqBVqAVaLUUKKTNlbfeeqsceeSRcskllwQaWO3G67Jely5dZMGCBRK2aDiRs3BHzoAzM5yhC9AKnAFnBQdn+oOJPuwWY/mPPvqolW+vkdYwXW+88YZMmzZNHnjgAXwdvg5f5zG4C+kFPWxzAJFWIq1McExwBTPBrVq1ytpxr2WtwngNHTrU2kR7ww03uP488vfN0qALuhDd9H/UF2gFWoFWoLVgoLVWrVqiS+kaaQ3r1bZtW7nlllusY19NF3AGnAFn/ocz+sglPSCbJa+0lJXmV7lduSzVQ1sSe0HLwKALutgKJFPuJMj20q1bN2nTpo2cddZZYeVV63dpvdlzzz1XXn/9dePvxO+aux9d0MVWgLnRbAt+0KWIwwUyO39RKNisJ7qgSyojLdP28tprr8nUqVNl0qRJqTQjsPeOHj1afvzxR+nZs2fWfkOm+6giDaUt+JdU7Ad7Ca69kB4Q7TuWzFgyYzkmvEtmZ5xxhrVJ6aCDDkplbgv0vRpRnjhxohx88MExvwNfh6/D14XX15msO0ybcYFWoJWc1rhRTk1H92XCIJZTevLJJ6081v79+wcaQlNt/Ny5c+WFF16Qhx56CGiNnL4YRNv1Oi2SUmCJIyJMcMaLBSWvgDPgzFKAcidm/AmrLk2aNJF58+YVVJTV7uFTTz1VFNpr1KhR1ulEWom0AkREWk2jIAhzAJFWIq3APDAfWpifM2eOvPvuu3L//fenGqgMxf0zZsyQt956S7QUln0BrUAr0Aq0Aq1M/KGd+LXuI8tUsQbOxB+MiV/LPymwHXbYYaGA0HR+hP72t99+W/bcc0/r49huMGwXv5vYT9gutkuklUgrkVZeuEL5wvX+++9b9UoXLVqUDuuF5jP9+vWTevXqSfv27YHWSpVc+xUgAoiIQPs/Ag20Aq1AK9AaSmjVjVd//vOf5eqrrw4NgKbzQxTeVYvnnnsOaAVaY0yITafmEYUu/tUFaAVagVagNZTQesEFF8gjjzwif/zjH9NhvVB9pl27djJixAj5y1/+QnqAS88SaSXSSqQ1AJHW4uLiEqeplpSUiJaN8DrJys6Lqlatmqtj1+fo5XVcYuQ0LitX0u0e2mI+ahJd0MU58BhHiW7oiy++EF0W10MFuER69+4teoRtixYtBHsxWwS6oIutAPxitgU/6EKklUgrkVYiraGLtOrpVx9++KEMGTIEZo0o8Oyzz8qyZctk+PDhRFqJtJYpwDK4f5fBifpSpxU4A85CB2f2qgc7jWONe+DAgXLCCSfI2WefDbRGFPj666+lb9++MnnyZKAVaAVaN/h/GRxoBVqBVqAVaPVAuCAUlk7Wkbdq1UqGDRsmDRo0AFqjChx++OGyatUqKyWLl5xEsyCn1TxU0AVdkvW7uQiikB5AegAwD8yHDubr168vH3zwgQVnXKUKnHfeeTJ48GCpU6cO0GowCuAMOPMTnNEWIq3AGXAWOjjLxZtt0JynbsLS3fLLly9Pj1c3jJSmHUWmrOgpdfQJ8f8/vafm/VM9evSQM844Q8466yygFWi1FCCn1Tws0cW/uhBpJdIKzAPzoYL59957T+677z6ZNm1aeqAYUmjVk8H+53/+Rzp06AC0Aq1Aa2TFwe0CWoFWowIsx7AcE7Qont1ebNe/tqu75MeNGydPPPFEVqB1w8imUrfXytJnd1kgJX0+cURmN8jI0jCt9IzMiQn3jmsZ+dBC6VrUSsaXta6JjCheIa2f3/XcJiOKZYU+IIPXQw89JDt27JBrr70WaAVagVagNWEUBGFfQ9H27dtj6rTqr9A6rW5nzdu/csuWLVKjRg1Xl5pMPa9kvieZe2iLuRvQBV1sBQppHC1ZskTmz58vY8eOTQ/5NNJat5dEsbT0GU1GSLGmC8REYRU+Z0ub4gYysCydwAGt4kwziN5bMk5aWtAa+Zz179H7B7aTGc3XSr+yvw+UBhGQzSS3Pv744/Lpp59aR9uW598LyV5SGSPoYh5S6IIuuRpHRZE37xhoVePTIsuVK1f2dPibN2+WmjVrut6zc+dO69AAr0MK9K1f/+7mQGnLbkZ90QVdnIbBOIodJs8//7ysWbNGbrvttvSh1SunNQZqI1HSpU7gjI20WvmwZQBcGlHtWccArVc1kl6r2kiJFYmNxGK7FsnsNiUS/b/p/Y64T82dO9eqXXvjjTfidw2KMo7MZoYu6GIr4AeuI6c12hss95oHJrqgi61AUPK8FixYYEVax4wZkx7seeW0LuwqkZV9WRAXEa03tEhala33R+G02HxvvqB1ypQpost/t956K+kBBsvA1+Hrgubr7PYWku0CrUArG7HifHVQ4KwQHVYyk8qrr74quhQ+adKk7EDr7GhE1ALY1dHoqf1VjkirQqvx3vykBzz88MPy888/S7du3YBWoNVSAF9ndhHo4l9dgFagFWgFWi0FgpCEnwy0vvXWW6I75WfMmJF5aHVuourSRbqMj4RXFziX8Z3pAY4NV2X3FkuDgXWll0RzZO2c1sjGLedGrC4xz0zvZ8R/6v7775e9995brrzySqAVaAVa2YiVMAqCMAcArUAr0Aq0hgpaN23aJLfffrtMnTo1M7QXkqcMGjTIOiFMTwvjRKzETi2kJdZkXv5YydmdudGHcyPQCrQyMH04MJlUKnY2uG4S1c2iXLsUuOiii6Rv377SsGFDoJVIK5FWIq1EWp0KkBPi35wQgKhiQKT6EZUx27dfdNGTnyZMmCC1atWCW6MKHHfccbJ48WLZc889gVagFWgFWoFWoDU8eYEsDbE0FO/RgvQiqrVIdRn81FNPBVojCvz4449WLuszzzzDC5eLRfjlhYuX4kquY5Y+8newIBe2W7Rt27aEwwWS8fLlFa5P5hmZuoe2mJVEF3RJZYyFyV4ee+wx2bp1q1XeiUvkhRdesHJ80y4DZhAxTPaSSRtBF/xuKvaEvaRmL0WRgwQSDhfQYsKaqO91bdy4UWrXru16iz5DDxeoVMn9rUkjN3qIgdfhArQlUWI9XABd0MVWgHGUaAurV6+2NmPpQQNcIgMGDJDq1avLFVdcYZU5wu8mWgW6mEcKuqCLrYAfuI6NWNHeYNmBZQcnBOpJbV4vXNiL/+1FNxytXLlS9tlnn4Ln1pYtW8qIESOkfv36pAe4WANj2v9jmj6ij4BWoBU4i/MDQcrd1KbjyM2OvGfPnnLaaafJBRdcUNDQ+vnnn0v79u3llVdesXTAXpj4eUFnM65pFFCnlWhVgl0ARO5LLUQ3zUuW6JKeLi+99JJMnDhRnnrqqYKG1pEjR1qpWj169ABaPdLVgHlgHpj3P8wTaSXSSqSVSKulQBDeslOdVJo1ayZz5syRP/zhDwULrlpBQcH94IMPBlqB1phxQBCFIIpTgSDMAUAr0Aq0Aq2hhdbHH39cNFLdtWvXgoRWzenVqgEPPvhg2e8nokhEMdWXP05QS7QZxlF+xhHQCrQCrUBraKFVgfXwww+X4uLigoTWSy+91EoLaNy4MdBKulrCGCDSSqQ1cJHWbJa80lJWOmm4XbkspUFbEntBy1egC7rYCiRTxi6I9jJ06FDZb7/9Ci7a+s4778g999wjM2fOTFgSzlXJqyDaSy5KMKILfjfsfjdb44jDBTIcf6FQsFlQdEGXVIZaJu1Fl/G0PuncuXNTaULg7+3du7ece+65MVHWTP6oTPZRRdtFW/AvqdgQ9hJceyE9gPQA0gNIDwhteoCdizdp0iT59NNP5e67705lbgvsvXqowqJFi2T06NEJv4FcPHO3ogu62AqQNuHftAmgFWgFWoHW0EOr/kBngf3A0miSDT/iiCNk+fLlxoMVgDPgDDjzf2kn+sjcR0Ar0Aq0Aq0FAa3r16+X/v37h75u65AhQ6RmzZpyySWXGOkMaAVaASKg1TQKKHnFbs0Eu2DZwb/LDjjy8DvyKVOmWPVoBwwYkGTMMli3zZs3TxYvXmxMC7B/CdAKtOLrwu/rnFb+3//+V5Q9qlWr5unQgFagFWiNKhCEwYAjLwxHfuONN8rZZ58tZ511VrCItJzWfvfdd1Z0deHChayesHpSEKsn8UMiTHDGfER6AI4cR44j9wCfQnqxaNGihejxpvXr1w8NuGoe64svvij77rsvvg5fh6/D15UpECaYJ6c12q0smbFkxpttYURa7X4+/vjjRXfZh+GIVz2uVk//+tOf/mTVxq7EcaUxDo20LNKynAoU0gu6/m6gNSICnW52AuiCLmFzEmGG+QsvvFDGjBkjf/7znwMbcW3durVMnjxZ9t9/fytvDWhN7Ep0AVqB1pDktEaONyxxdmZJSYlF5V4nWen9Gpn0SurV5+hVVFTkOhlETuOyTmRyu4e2mLVDF3RxDirGkdnFJKtLx44d5bHHHrOOew3apdHi++67T2rUqGE1Hb9r7kF0QRenAvCL2R6CoAvpAdG+Iz3A3YjtAu2mO8K07BDmiGJYdo5mq4/at28vGrF0KxPlN5h9//33rfJd48aNk4MOOqiseUQUiSgSUQxHRDFbvs7LlwVhpRhoBVrJf4sbxUz8hTnx33LLLbJ9+3Zrg5afr7Fjx1plrWbOnJkwdrHdwrRdN3sNAoQAZ4W1l6CigS6gFWgFWoFWSwEmOJHZs2db/1x55ZVy2mmn+Ypd//nPf8rw4cOt/Nubb77Z2DagFWgl0kqkNX4UVBQU/fRiAbQCrUAr0Aq0Omzg66+/tqCwatWqcu+998rvf//7vMOr5q0uWLBAunfvLm3btnVtD9AKtAKtQCvQavADRGXMzhFd0EUVCNObrZ/esnPZlkWLFomeoHXIIYdIt27d5C9/+UtO4VU3D40ePVr0lKu///3vcs011xANd+kB/C5+F79bxdrYbrrCNB8RaSXSSqSVSCuRVg8c1RxXzR9t1aqVnHrqqXLKKadkFV7Xrl0rS5YssXJrFZavu+66skotwBlwBpwVBpzl8gXd/q4g+BegFWgFWoFWoNUDQ21HPn/+fJk2bZqsW7dOrrjiCjn22GOlcePGGQHYjz/+WD744AN58sknreddeuml0qFDh4RnB2FSYbJlY41pUGC7vHBl4oWrKLJbNqZOq/1QtzCzLfuWLVvKagOauiKZungasi7ve5K5h7aYBwO6oIutAOPIbAvp6PLtt99a+aV6ZOqqVaukSZMmFsBqGkGtWrWkdu3astdeexlrXWtpvU8//VQ2btwomzZtks8//9yqBFC9enVp3ry5nHHGGZ5HyzKmGdOMafMSOLoUhi5FO3bsiIFWdeJalLty5cqeEYTNmzdLzZo1Xe/ZuXOndWiA1yEFke+2/u6Vh0FbEiWmj9zzdrAX7MVWIBf+RV/Oly9fLh999JGoT1QQ1brGb731lvW/6kcVYP/973/Ltm3b5Mgjj7ROrVK4Vf/ZsGFDOeGEE2TvvffG7xpmE3wdvs5pFrkY0/p98IsZ7fygC+kB0b7hcAGzkaILurDcm95yr46d6dOny5tvvikDBgywjlkthI0S2Et69uL0NPhd/C7jyDyOgFaglZzWOP9I2SDzhIEuqesya9YsWblypQwcONCKvAKtsRoCZ8AZcMZLjmkUuOVAA61AK9AKtFoKsFHCDBAV0QVo3R3/gn/Bv5hdC7qkoQvQCrQyqTCp4DzTcJ7JRIiAVqA13rRYsUh9xcL+BJF5IvNAK9AKtAKtQCvQWqZAmAqRJ/NiARDxYsGLRakCFVlVytU4AlqBVqAVaA2MwwoahBBpBYgAouAAUdD8S65A0U+6AK1AK9AKtAKtRFqJtEaqPbBZLnEgsCTPkryvoDVSOzDhcAEP/132p/KKXCfzjEzdQ1vMSqILuqQyxrCXzNvL7NmzrZJXQ4YMSaUrXO+ljzLfRxnpGMdD6CP6KBWbwl5Ss5eiSDH2hMMFtICvvnF6XXqii5784nbpM/RwgUqVKrneownpWnzbqwwMbUmUT3PO0AVdnG+/jKNEe/CDf3n22WetkleDBg3C1xlmAj/0EeOIeTreNOEXM7b5QRfSA6J9wxIISyB+WgKhLeGoXUhOKzmt8Z6V6gHmuQZd0MWpAHVaI8fFekV9gVagFVAMByja/eiHMQ204neB1lIFgrAznTnA/3MAkVYircB83KzCGz9v/Mm88SczwQGtQCvQCrSaPSq6pKML0Aq0Aq1AK5EQD+9ZkQgR0Aq0Aq3AWTpwlsxLsZ9WlXLVFqAVaAVagVagFWgtU4DDBXYzWgO6oIvTMPyQfpQrUPQTQAOtQCvQCrQCrUAr0EqdVuMoAM7MzgFd8qNLVkteaSmr3SMboNyuXJY7oS2JvaDlK9AFXWwFkiljh72kZi/5KHlFH6XWR84oUq5Kx9FH9BF+N72yqkUcLuCVbZL63ygUbNYMXdAlldEUFnvhcIFUej39e8NiL+krgH9JRTvsJbj2QnoA6QGkB5AeQHoA6QGkB5AeQHpAVAEqyJgdoh90AVqBVqAVaAVaMwitn332mUycOFH69esnGmnVE7EGDhwoM2fOlGrVqslFF12U8G1s8mGTj9MoyJc0D0h0QRegFWgFWoFWoDWD0Prvf/9bDj74YOvY1rPPPlu2b98uH374oXz99dcybdo0Oeecc4BW/C5+F7+L303D7wKtOE+cJ84T55mG87Q/Yloy69Wrl4wcOdKKrOpJfD/++KM0atTIglfTRaSVSCuR1l+sjducXBnrIfywJO/l6+L9Wbaj4UAr0IqTAFqB1gxDq0Zba9WqJd9//7315H322UemT58uLVu2BFodCmR7gvPTZEtb/H9EKH3k/z4CWoFWoBVoBVozDK36ODvaqv9++OGHW1FWLXVEpHWXAkCr2fDQBV0AaDNAA61AK9AKtAKtWYBWO9qq9ZCffPJJad26NdAapzNwBpwBZ/6Pbvqpj4BWoBVoBVqB1ixAqz6yW7du8sILL8j7778vVapUAVqBViFH0TzY0AVdnAps2OASaS0uLi5x3lhSUiK6KcDrJCu9X9+QdZOB26XP0auoqMj1nt9++81y4m730BazduiCLs5BVQjj6Ntvv5V3331XvvrqK/n5559l69at5foX9WPqW7z8i44ltyV7W+OdO3d6vtgl4+uC0pZ9993X0uPAAw+0No5pXq7bxRzgHiVlbkzUBnvBXlSBivILkVYirURaibT6NtK6ePFiq0zUmjVrrPqm+jJdvXp1z5dhj6ApfypHgT322EO0zuxPP/0kr7zyivWCcPnll8tVV12V8Em3SIh9I5EzImfJRM6wF9IDTCPFNdIaod6YSCulV9go4TQgcs7c345Z7jVHUzKhi0LqiBEjrKhfjx495LDDDgM486CAAuwTTzxhHZIwduxYOeaYY8paAbSaOwRd0EUVgKWyw1JEWom0Emkl0uqrSKumAJxyyikya9YsOfLII/OAanxlvALffPONdO/eXTp16mQdmKAXcAacAWfkqcePgmwHuoBWoBVoBVp9AyEa2evZs6cFrFz+U+Dqq6+Wyy67TE4//XSg1aV7gHlgHpjPHswDrUAr0Aq0+gJadTmtTp06smnTJv/RGi0qU+Diiy+WG2+8Ufbbbz+rv9wuclrNyqALujgV4CUntZccoBVoBVqBVl9Aq0bxOnbsaKUGcPlXgW3btskZZ5xh5brWrVsXaI1TAAhJDULsu4F5YD4ZmAdagVagFWjNO7QuX75cHn74YXnqqaf8S2u0rEwB3ST33XffyaBBg4BWoNWqPetV5kslAuaBeVWgohvUirZv3x5TPcB+aHm1C7ds2SI1atRwdVjJ1i4s73v0B5Z3D20xdwO6oIutgN/HkW7y0VzJ0047DTQMgAJaCkv7Sl823C7mALMy6IIuTgWYp1Obp4siRwwmlLzSYuWVK1f2dJ2bN2+WmjVrut6jBbm1qLfXIQV6vKH+3es8btqSKLECCLqgi61A0MeR+oqGDRtakRiu4CigdXN109yJJ55obDRzgLkv0QVdnArAUhrZqpYAACAASURBVGZ7cNOF9ICoXtku02B3C3k7ZgNFl8LV5dVXX5UFCxbIfffdFxxio6UyZcoU6xCC6667zqgGY7pwx7Tpl5MeYLYHdElNF6AVaCWnNW7MMNnmdrKdMWOGvPPOO0BrwEBYy5KtXLlSHnjgAaDVoQAQkhqEENDhRKxUXnKAVqAVaAVaLQXyNdk+9thjoikOXbt2DRi2FXZz33jjDZk5c6YMGzYMaAVa2YgVNwoquuEImDfDPNAKtAKtQGteoXXUqFGim1M0P5IrOAq8+eab1lG706ZNA1qBVqAVaLUUyHaqJdAKtAKtQCvQGhxW9E1LgVaWwVUBIoq7GQ0BXbKjC9AKtAKtQCvQ6hsUDE5DgFagFWjN3nGlpAeQHgCcAWd5hTPTFJevPFI/tYX0gOCAqrOlQCvQCrQCrfGjIOvpAZEj+RIOF0jGhZZXEDeZZ2TqHtpiVhJd0CWVMZYvexkzZoz1QklOayq9lf97FVp1E9bkyZPz3ph82a7ph9MW/G4qAwJ7Sc1eiiJF6hMOF9CdvFWqVPHUfePGjVK7dm3Xe/QZeriATkZul5YW0kMMvA4XoC2J6mmuDLqgi3P5KMjj6MEHH7R+CtCaylSX/3sVWocPHy5Tp041NoY5wNxH6IIuTgVgKbM9uOlCTmtUr2yHtJ2AoaeAecE8bTEbMbqEUxfSA/IPoOm0gPQAs2qk/KCLKsBGLDZiufpVnAROAicR3NwqoDUdZMz/Z4BW/C5+N7h+12S9QWApIq1EWon6xo1eTsQyT8bZ0gVozT+AptMCoBVoBVqB1vhRkO0VUaAVaAVagVZLgXy9ZQOt6SBj/j8DtAKtQCvQCrQ6FCAnJDs5IbbE2YqcBXXZAV3ycwY20Jp/AE2nBUAr0Aq0Aq1AK9Ca9WPQgLP8wBkwb96cALSmg4z5/wzQCrQCrUBrzqE1myWvtJSV7pR3u3JZ8oq2JPaCll5BF3SxFUim9Eo27IWSV/kH0HRakEzJq2zYi6mt+bJd2lL6IpqpEozYC/NRefNREYcLpOOu3T9DoWCzNuiCLm6jhsMFMuuDcvU0DhdgTKdia8wB2Esm7IWNWFEVs73jjSV5luRJDyA9IBWn7fd7SQ8gPYD0ANIDcp4eUBK5nF/K5ic2PzntAZg3T0zokjldyGn1O56a2we0Aq1AK9AKtDoUAKABaAD6FysvPMwnqAGtQKvXUd6696FatWqeIuWrXBurJ5z8hO3GjoJsB3RIDyA9INRAxKTi/0kFaAVamfhzO/GTrka6WlDnRqAVaAVa40Yv9WvNEJUtXYBWoBVoBVqz5V+CCme8WJhfLIBWoBVoBVotBfK1xAq0Aq1AK9AKtOY2WBBUmAdagVagFWgFWoPJjXltNRuxzPLn6+UvqBBCRJFUhVRsF2gFWoFWoBVozSv+BfPLgVagVRVgwzQbpp0jIesbsYqLi2NKXmkFLDVCr5OstIHaMK8dnXYlraKiIlePHDmNyzqRye0e2mLWDl3QxTmogj6OJk+eLPvvv7/07NkzmPRWoK1WaL3nnntk2LBhRgWYA8yGgS7oEg95sFSiTbgxJpFWIq1EWom0BijSukFGNq0rvVZGO63LAikZ13JXDy7sKkWtxkf/fxMZUbxCetYpMKrcMFKadhSZsqKnZPOnE2kl0kqklTqt8aMg65FWDhcolTzbQtsdS7K52dGjS+HqkvxGrFJgndGuWFZESXRh1yJpJTa4LpSuTT+RPlmGNd8jMNCa0EX4l8L1L6ZfTt5xcF+4iLQSaSXSSqQ1GJFWI4xFQLVotrQpGSctI1HWpp80kEa9eonGWpuMiIPb0v8oxTFQq59vZd1fekWjsxKJVtbtJXZA1/pTlwHSZfydifdqONMZ4dXob59PHNFOhW0r9Ck99bl2FFR/T90Z0s6OBsc/wxlBjnzFhpFNpa4dYo6PMDtt2NJprTSKtHS8/gCve/VzVjvs39pFFqiWSZA5kdbgTvwEUdj8FFSYB1qBVqAVaA0GtCrUzW4Tmw4gDiAs1tQAiUKXwuhAaeBMDzBBb8wzXeCyVJ0IeJ4nM1aeIv0sqHO/V6O/s08YIasn2kv05nuLuzaVgatF2sXDrMXAkWe0KZEybo1puwPUjTNPKYQ2WqCfL41Or+3neFbMZ2J1ssB4bb84jc1wBrQCraoAG7HYiOUcCdletQZagVagFWgND7Q6oNYIfs7oqUZd+62VumWfiYNLY6T189KobgIs74rVWvHa228XGTzYEal1RHA10jpFZOjz9aTBjIGlEVgLuOOe4YgUl3aQMyLqka9r3bc2CtelEdqOMqUspSLG3CuQSgC0Aq1AKzmt8aMAaOXc6QTPyJstb7a5fLPN9lJi0jmtSaQHOCOx3tFKRzRTDJu3nMv4UQH0eTeO7yLDTNAaHwGOaWtipLVfu7XySes+Ih2jaQMKrQlRZEcvW6kDHlFkp0EArQk+k5xWM2CjC7rEuI4N/k+bINJKpJVIK5HWYERarehmORux7PxWKT89oBRqi6XBwCg41vFKDyiFXCO0Wvmvdm5qdDn+Kq/0gBkijfrJinF1Y3Nd45/hXNJ3pjFYALvavTJCNCKbTnqAlZs7sEFc3i/pAUQUiSjmOqKY7WCBaVQHYYNa0fbt22PqtNqD0+1YPfuHbtmyRWrUqGH2ZpH/mkwtOo0Ylvc9ydxDW8zdgC7oYivg53E0evRoqy50cnVaky955dyIlbi8HvkvkfSACY16ycQG9oatctID9ol8pqG9kctxb6obsWLg1AbmyLM9N2I5Nox16RLZEBZJJbByVg35ra4bsVxyYSuwEUtrtD7xxBPGgcYcYPY/6IIuTgWYp1Obp4t27NgRA606uWmx8sqVK7sCqf5h8+bNUrNmTdd7du7caR0a4HVIQeS7rb97nTtNWxIlpo/c0wOwl+DZy0MPPWT5iuSg1dMtFeQfF3btKjIuuR3/qdxbnpia0zp8+HB56qmnjLcyB5gVRBd0cSoAS5ntwU0X0gOiemU7edjuFnKIzAaKLoWrS9I5reVRVEH+PRLxHVkcAf5kilSlcm/5YrIRy6xREJZYmY/8n7tJH5n7CGgFWslpjZt7AOjcAjTQWj4g+vEOoBVoVQXYGMzGYOdIyHYAEGgFWoFWoNVSIF8RIqDVj0hafpuAVqAVaGWDWvwoAFopeZXgGXmz5c02l2+22V6mAlrLB0Q/3gG0Aq1AK9AKtDoUAM6AszDBmWmKy1d0009tAVr9iKTltwloBVqBVqAVaAVaJdvh9WxHzvwERLTF/zlnQGv5gOjHO4BWoBVoBVqBVqAVaHWZoYF5szBB1wVo9SOSlt8moBVoBVqB1pxD67Zt2xIOFyjfXYmUVxA3mWdk6h7aYlYSXdAllTGWL3sZM2aMtRmQOq2p9Fb+71Vo1cMFJk+enPfG5Mt2TT+ctuB3UxkQ2Etq9lIUKcaecLiAFv2vUqWKp+4bN26U2rVru96jz9CC4ToZuV1aWkgPMfA6XIC2JKqnub7ogi62AkEfRw8++KD1U4DWVKa6/N9rHy4wdepUY2OYA8x9hC7o4lQAljLbg5sulLyK6hX0JVZTt7PJxzwY0MVfupAekH8ATacFpAf4axwxB/g/f58+qngfAa1AK3Va4zwJhwuYJ+Ns6QK0poOM+f8M0Aq0qgJU+aHKj3MkZDsACLQCrUAr0GopkK8INNCafwBNpwVAK9AKtLIRK34UAK0cLpDgGXmz5c02l2+29ncRaU0H7cL7GaAVaAVagVag1aEAcAachQnOyGcyLyUSaQ0m2AKtQCvQCrQCrUArdVpd5vBsLztkO6IItAKtwcRTc6uBVqAVaAVacw6t2Sx5paWsdt99d1c/nctSPbQlsRu09Aq6oIutQDKlV7JhL5S8CibKJlPyKhv2YlIrX7ZLW0pfRDNVghF7YT4qbz4q4nCBzE4YFAo264ku6OI20jhcILM+KFdP43ABxnQqtsYcgL1kwl6oHhBVkaVnszmhC7pkO22CnNZUXLl/7iU9gPQA0gNID8h5ekBJ5HJ+KZuf2PzktAegFWgFWv0Din5qCdAKtAKtQCvQ6lAAgAagAehfrLxwr+OQg/5iQaTVTyiafFuAVqAVaAVagVagleoBLvNm0OHM9LPyVdDfT20BWpMHRT/dCbQCrUAr0Aq0Aq1AK9BapkC2CvoDrX7Cv2C2BWgFWoFWoBVoBVqBVqC1oKB17Nix1u+95pprgklvBdrqt99+WyZMmCB2/8XLUAgvXH56+aMt5jrQ6BIuXageELVolp7NMy+6oIutQLYgZNKkSfLpp5/K3XffXaD4F8yfvWjRIpkzZ4488sgjxh+QLXsBQsIFIdn2L9hLuOwFaAVaQ73JB4flf4e1YMECmT9/vmi9Vq7gKDB58mTZvHmz68sG0GruS3RBF6cC7Gsw24ObLkXFxcUxJa+0Apbu2vc6yUq/QiNw1apVc/WwdiWtoqIi13sip3FZJzK53UNbzNqhC7o4B1XQx5GCz8SJE2XatGnBITZaKoMHD5a9995bzjnnHKMazAFmI0EXdHEqAEu5r2aaGJNIK5FWIq1xY4ZISO4jIc2aNZPHH39c/vrXv4KDAVHgmGOOkSVLlsgBBxxAeoBDASJnqUXOSA/YIHXq1HEd9cxHsdIArUAr0Aq0Wgrkc7J9+OGHrahdx44dA4Jshd3Md999V0aPHi2PPfYYk22cAvkcR/GdQVsAaFUgTDXvgVagFWgFWvMOrdqAQw89VD7++GOpXLlyYRNhAH59mzZtpHPnztK6dWugFWgVjQZ6pQvm+6UYmP9vaPoIaAVagVag1RfQ+swzz8hnn30mvXr1CgC2FW4TtWrAqlWr5B//+AfLmgYzILpJdDNs0U27R/2QqgC0Aq1AK9DqC2jVRvTr109+97vfSZ8+fQqXCn38y9944w2rWoCCK3AGnAFnHC4QPwqyXSYTaAVagVag1TfQqg0ZP368bN26VW666SYf41vhNe2VV16xarJOnz7dV/bC0rO7LfJiwYtF2F4sgFagFWgFWn0HIbfddpv8+OOP0rVrV2nYsGHhEaKPfrG+QAwaNEi+++47qzSZfQFEAFHYgMhPy+C0xVxVoWj79u0xdVptI9T6qV7Xli1bpEaNGq63JFOLTne0lfc9ydxDW8zdgC7oYisQxHH05Zdfyv333y9169aV4447Tv72t79Z5ZXKqyHtI94LbFN++OEHWb58ubzwwgvW/2qecdu2bWN+D/4F/xJk/wK/JNpvEMZ00Y4dO2KgVSc3LVZe3g5eLQhes2ZNV6e8c+dO69AArwkm8t3W393AlbaYXxzQBV2cAy/s4+j111+XpUuXWpu0FKA08vr999+XC4T64ux1uIk+IJl7kgF+t8boxgXtn7322ivvbbHb6PWbtV6k6l2vXj055JBDpHnz5nLeeecZfx5zgLnX0QVd7OAfLJVoCxXlF9IDoppmO3mYUD8FlE2unCXW1JdYv/nmG/npp5+sl91KlSq5wmtkFUn22GMPz5fiX3/9VapWreoJwJ9++qnnoQf6DLe26BG177zzjrWxLN9tsX+kly76Ow488EDRoAMljGLNIky1LpmPmI+COh8BrUArOa1xo9cPZT2YVMIxqcyaNUtWrlwpAwcOlCpV2GkcP1ESLDC/L6ELujAHuOS0RpaKEtIDKBRsDmmjC7rYCjCpMKkkM6kArbvzUsxLsaUAq0qpryrpJwiixOpGpJVIK5MKkwqTikeCQEUmW6AVaI03LSDEPNjQBV2cCrj5XaAVaAVagVagFWgtU4DcTfeNnqy2sdrGalt+X0SBVqAVaAVagVagFWj9z3/IOzaMA1KhSIVKJhUqVzAPtAKtQCvQCrQCrUAr0GocBUAr0OoraN22bVvC4QIe/rvsT+UVoU3mGZm6h7aYlUQXdElljGEvmbeX2bNny5tvvilDhgxJpStc76WPMt9HGekYx0PoI/ooFZvCXlKzl6JI8duE6gFaDFvLs3hdGzdulNq1a7veos/Qwt5edRQ1P0gPMfA6XIC2JEqsOWfogi7Ot1/GUaI9+MG/PPvss1bJKz0GlT7yZx8xjpin4y0TfjGjnR90IT0g2jcsgbAE4qclENpCnVbTiKxIJQP7efg6fB3+JRz+pRDHNNAKtJLTGjeHUXrFPKmjS+q6UPIqvzuNgTPgjJc/kTBVBAFagVagFWi1FCCKZ4bSiugCtAKt8VbFy1/qL3+FGFHkhYsTsYAz4Aw4M88X6JIlXYBWoBVoLVWgIi9/QCvjyLYBIq1EWoF5YJ5JBWgtUyBMS4lEq0gPID2A9AAmuCxNcLxN8jZJVCZcURkirYxpxnS4xjTzdH7HdFZLXmkpq913390V8XJZkoa2JHaDlq9AF3SxFUimjB32kpq95KPkFX2UWh85o7G5KktGH9FH+N30yqoWcbiAR9g0jT9RKNgsGrqgSyrDKSz2wuECqfR6+veGxV7SVwD/kop22Etw7YWc1mjfUbvQbMTogi7OSJSunHgdGIK9xNoL6QHYC+kBpAd4ATUb1MzquOkCtAKtQEjcmKEkjdmJoEvqugCtQCvQCrQCrbsUqOhGT6AVaAVagVZLAd74U3vjTyYCDbQCrUAr0Aq0Aq0xNsBkm/nJ1n4iy72kByQDZ9iLGc6AVqAVaAVagVagFWj95RepVq2a11ggcuaiDi85vOSoAhVdpkoG5oFWoBVoBVqBVqAVaAVaE/xALiCEiCIQkgqEAK3YSyr2gn/BXrAX75ccclqjFsIyOMvgyUTOmFSYVFKZVIBW7CUVe8G/YC/YC9Aq7Ho2Aym6oItTAdImMp82AbQCIUAI6QGkB2QwPaC4uLjEKWhJSYmV6+V1kpXer5FJr5xKfY5eRUVFrv3122+/WScyud1DW8zaoQu6OAcV48jsYvygy+LFi+W9996TPn364OsM3eSHPrKbRVv8O47oI1jKtgHSA0gPoORVnK8mAk0EOlMR6PhI686dO2WPPfZIEJh87N2MRocu6OI0DNL4zL65kHQBWoFWoBVotRQgPSAz6QEffPCBdOvWTe69917517/+JStXrpSrr75a7rzzTjnppJPkhhtuAFrxu/hd/C5+13Ud3n0+AlpxnjhPnCfOMw3naX/EFJnfb7/9pHLlynLggQdK1apV5fPPP5dt27bJihUrpGHDhkArfhe/i9/F76bhd4FWnCfOE+eJ80zDeXpB60MPPSR9+/aV7du3lz25VatWMn/+fJbBHQoU0rKml73EGwW6sAyOvWyQOnXqJBgC0Aq0Aq1AK9CaYWjVx/3hD3+Qb775xnqyRl5ffvllOeKII4BWoNXa6FypUiVXqwNagVagFWjFSQBnwFkW4Mz5SCbbXWo4o60tWrSwoqxaLcV0seEIXRhHvwDzBufAxuBYUYi0EmkF5oF5YD5LMK/RVq0YsGTJEjn66KOB1jideckhokhE0RxRRBeXSGsk5yqmTqsKpW/9bhEBW8gtW7ZIjRo1XF19MnVak/meZO6hLeZuQBd0sRVgHJltIdu6jB8/XpYuXSrTpk0r16dmuy2p2AJtyY+90Efe9UiTsctk7mFuDO7cWLRjx44YaNUO1yLLuvPV69q8ebPUrFnT9RaNLuihAV6HFES+2/q715IZbUmUmD5yX0rEXrAXWwE/+Bctd7Vx40a5+OKL8XWG2cIPfeQne6EtMEP8MIGlSA8wgjbLVCxTsRzDMpVpFKRbv3bNmjXWSViNGzeWgw46yKrVSk5rrML4Xfwufhe/m4rfJac1qhbOE+eJ88R5puI8vezliy++kHbt2sny5cut23r37m0dLHDhhRcaBxobsdiI5TQM5iPmI+Yjqgew4SjOD7Ar0ewY0QVdnAqkGmn9+eef5cQTT5SPPvooRsjOnTvLpZdeKmeeeWaCwEAr0Aq0Uj3A5HmZj0gPID0gqgCDATirCJyZ1CNCJFK3bl3R1ADTvgCNtN52221y7LHHxsgHtAKtQCvQCrTuUsAtWEB6AOkBRKCJQFsKpBpRBFpLFXC+/B1//PGyYMEC6/hWt6t58+Yybtw4qV27dtktQCvQCrQCrUAr0JowqbhNJESIzMqgC7rYChCZ947M6wECY8eONR49GP/J4447ThYtWiQHHHCA9SegFWgFWoFWoBVoBVoNZ/cCIWw4MjlHIq1mKE1Gl8suu0xuvvlm0Uhrspeeq71u3TprpQNoBVqBVqAVaE0CWrdt25ZwuEAyTre84rzJPCNT99AWs5Logi6pjDHsJT17ue6660ShVZf9U7l++uknqxzWW2+9lfTH6KP0+ihpgTNwI31EH6ViRthLavZSFCnGnnC4gBZ8rlKliqfuWjDbmZMVf7M+Qw8X0CiC26XLjbpZwat2IW1JVE+jMuiCLs6IOeMo0R5y4V9uuukmadq0qbRt2zaVears3s8//1wuueQSeeWVVxjTBgXxde4RaOYA5oBCnAPYiBXtdXI3zXMuuqCL0zHqCXZeL6KFZC8DBgyQ6tWrS6dOndICVvtDH3/8sfTt21eeeeYZqVatmuezkklVoI/MLzDogi62Aowjs5sJgi5AK9AKhMSNXzYcmR0auuzS5cEHHxQ9XlEPDcjEtWLFChk1apRMnz4daHUoQK4vub7OAVFIL8UECzhcADgDziwFgvA2icPy72a5KVOmiKZH9e/fPxO8WvaM+fPni/7z8MMPuz4X2w1uhIgx7d8xHW9VvKD7N3BBpJVIKzAPzAPzHvjpBMW5c+fK0qVLRSOt2biefvppWb16tQwZMsT4eKAVaFUFiEATgS7UCDTQCrQCrUAr0JoEtL766qvy2GOPyeTJk7PBq2XPfOSRR2Tr1q1WCa34C2gFWoHWKp6btzVKSm547DgJ00sO0Aq0Aq1AK9BaDrT+/PPPcuedd8qcOXOyCqz2wzXSuv/++0uXLl1ivg9oBVqBVqA1fhQUUq5vVkteaSkr3bHpduWiJI1+t5YGoS2JvYAuZstEF3RxKvDaa6/J3XffbZWlyuWlkdajjz5a2rVrV/a1yZQaxNfh62wFsBfziEWX4OpSxOECmZ2GKBRs1hNd0CWVkeYXe9Fl+jPPPFM++uijVJqfsXu7du0qrVu3Lju4wC+66A+kLYzpVAwde8FeMmEvpAdEVSyk8LptOOyQNA8hdEEXW4GaNWvK5s2bU/G1Gb9XDx/o2bOndXoW6QFmedEFXVSBMOVuMk9T8orczTi/BpwBZ04FmPhj7UGX5l9++WX5/e9/n3EQTfWBLVq0kJEjR1o+rE6dOq4fZ0wzphnTbMSKHwVhgnkirURagXlg3lIAaN1lCKeffrpMmjRJ/vrXv6bKl1m7v0mTJjJ8+HDR/3W7gFagFWgFWoFWgx9ggmM5huUYdrHGj4IwpNm0adPG2nh11FFHZQ1A033woYceKh9++KFUrVrV+AigFWgFWoFWoBVoJVcmUgnCdIVp2cH+fUz8hTvxX3755XLllVeKRlr9eKltHnnkkbJu3Tqg1aEAQRSCKARRCiOIQnpAdKyHIUIU77Zw5DhyHHnyjrxHjx5WpYDzzjvPj7xa1qavv/5azj33XFm1alVCO3nhKtwXLtMvZw5gDgjbHAC0Aq3ktMb5NSb+wpv49eAA3eDUsWNHXwOr3bj169dL9+7dZfHixTHtxXYLz3a9DBZoBVqB1qgNMBgYDGEbDHaPMvEX1sT/8MMPS+XKleWGG24IBLDajdRI6wMPPCAzZswoaze2W1i2y3Glsf1Nulr40/iKiouLS5zdXlJSYuVvep1kpffrcrrXgNHn6FVUVOQ6Efz222/WSVVu99AWs3bogi7OQcU4MruYZHR55plnZPv27dK/f/9AAavd2EWLFsmUKVNkwIAB1n/C75q7EV3QxakA/GK2hyDoQnpAtO/IaXU34ipVks8LdJv5icynGJnfMFKa1u0lKxM+1kRGFK+Qno5SndhuerY7a9YsWb58uVVGKsiXRlrffvttuf/++yWwkdZNDybYe5MRxbLshlrWb0oIkOj4iGRyTFnRU3Qo4F9S9C/R2wNrL2wMjunwQpoDgFaglZzWOH/vN0f+6ZjT5crdnpAVTlJ1tLmQHJb9syvaRy+++KJMnTpVJkyYEGReLWv7o48+Kt98843cdNNN1iqZHkLgdvnSXhRaHRBqt911uRdoNcN8XKcD88C8KhCmtAmgFWgN3gRXYG/ZMdBqTdZrpZGMl/Eru8iC4gbSv/2OSMTpRjl0t00ysnTml57FXaWo1fhS6756vmwb1cwznUdvK5QJ7p133pF77rlHNNIapmvo0KFWbm63bt2CN6Y9oHXNsKbSqO+bpV3VZYGUjGsZMVY70tpanm9aV3pFlyQ0Olv2crfQMQaumiM7xrYKni4F5usC+cJFH+U06gu0Aq048iBFWq20gRnSzk4RiPz/xvHQOrCdzOi3a+l0QZcimXXONpl4fjVPRisEaN24caN07dpVli5dGiZeLfstt99+u9SrV8+zCoJvI63OdJgmI6Q4svRfa/2IyEvaTnnyjT6RNICF0rVotrQpGSctbWjtt1bqzm4jxX3qRqo/FCf+PZo+MLdzkcxrs0MebR2wCDRAlFMgytRKTtiim37SBWgFWoHWoEGrcxnVBK1XNZJenaNR1uhvO/H+1fJGn4YFDa3ffvuttGjRwsr/DPN1/fXXS6tWreScc84x/kzfQqtbesCaYXJmo77R/O5oTrdEI61TRDrasGtHYfVXO6OsURUaD1snK3vXc+16X+oCtAKtkZxuItC7zABoBVqB1tBA6+JIpGmgNJgQgdZVbUqXUSNXmPKZ0n3j37lzp9SvX99KgSiEq3379nLNNdfIySefnPBzfQlnbukBC7rI7uf8JgtKJkpLK9IasW9dZbCh1d6I9eId0rH5YAtsuywokXESSQ2IRGDtMVDRHGjGEZtx4weSL8dRAbzkAK1AK9AadGitu1ru/O1RaWXtwI6kDiyNpAc0t1MINsiIjubvSwAAIABJREFUSM7fRzcXdnpAo0aNZOXKlbL33nsXArNav7F169Zy7733SsOGsRF2X062XtA66xwpmXh+NHq6urR6RhRaB7abIc3X9oumB0QSCLoWycAGkbzW1s870mg2yAON68ond5AeEG/8wLzZHaCLf3UpitQojKnTar9Rav1Ur2vLli1So0YN11uSqYunEaDyvieZe2iLuRvQJRy6bBx9ulwlj8mr3WuLbHxITusk8tir3SXy/6xr0XVVpc1jkX858arIfR9J/cdele4brpeq508svSGyCWXbQ38rd6yF1V7OOOMMmT59ulSvXr1ggNX+oRpp1Tquf/nLX8p+ezI+NZl7MmovBrsubfBiua7q+RHrVzuO2PfEiE3P2S5j6uwaBxuuryq2qcuJQ+Vje2wsdo6B2fKf0Wd71g1P5jcnc09GdfGwWNpiFgddwq1L0Y4dO2KgVTtci3LrLlSva/PmzVKzZk3XW3Q5Tg8N8DqkIPLd1t/dwJW2uJ9uQR8lmh72gr04rUL9S9u2beW+++5LiDYWEr0eccQR8uqrr8o+++xj/Wz8rrn30QVdbAXgF7Mt+EEX0gOifePLJbMCyE+xhwbLMWYngS7p63LxxRdLjx49pGnTpoXEqAm/VV/m6tatK1o5QS98ndkc0AVdmI82RKpwOE6uiTMJP8xHQCvQSk6rDwcmzrNizvO6666zds+77aAvNIr9/vvvpXnz5vLuu+8CrS6dD7QCrfjdivndXLwUA61AK9AKtFoKhKVO66233iq68eof//hHobGp5+/dtGmTdO7cWebPny8czZwoFdAKtAKtQCtABBCFCojs7mSC8+cEp/mrv/vd7+Taa68FWA0KaKR1wIAB8uyzz3ruJdBlwGrVOIzCKSGl49xz5rGXxMGGvWTHXoi0EmnlxYIXi1C8WIwfP16+++470Uir76+yY0h7Rk56yu318ssvy+TJk2XSpEnGL2ayzc5kSxTP/1E8+sj/fQS0Aq1AK9AaeGjVklYaRdRIayCuPEKr6vPcc8/Ja6+9JiNGjEiQC2gFWp1GwaqSP1eVCrWPgFagFWgFWgMNrYsXL7YgbOzYsTnj1Q0jm0rdXnr+UuRyHh+q/1+PEB3YQIqjpzUZG2VB61ppJONlfOkxTmWnN+XqR2ik9Z///KfcddddMV8JtAKthQpERFoDEGndtm1bwuECyTjN8gooJ/OMTN1DW8xKFpIuX375ZdLm9MUXX8QUW0/6g1m4kbaYRU1Wl+LiYnn88cetwwNydsVESfVo0dnSpmRc5JhRx6X31O2161jRmD9G7ov+vZEeOdpyg4yMnFq2tp/+e85+hfVFGmn99ddfrXq2qV7J9lGqz03nftqySzXdZLf//vtb/6GQ5oBU7AZdgssMRZEi9QmHC2iRZTV8r0tr/tWubZ/Jk3inPkMPF6hUqZLrYzR5Ww8x8DpcgLYkyqeREHTZpcsLL7wgN910k/zP//yP6Els5Z2ypstdXptMVF+1Xf3H7SrvHm0HbUlUL5O66AEb6l9efPHFcv1VKhNaUvc6oFSkSenRoi7JqWVHizpvsD6/VvpFYVcjtx1liqxwe0hSjUrvJq0o8NZbb1kb2PTKZB8xjsz+O5u66IE9jz76qDU/M0+bxwS6BFcX0gOifUfejtmIg6DLAw88YEGo7hhnF6t5kgyrLgpYhx12mGjENWeXLv+3EllgAadGWgdKg3hoTSrSmn9obd++vTVuTjrppDL5SA8IdnrAZZddJtdff711qEZYytjZxhmE+chuK+MoO+MIaAVaA5/TOmTIEGs5TCNGYYUzrxWLQnfk3377rbRo0ULefvvt3HCrQuvsNqU5qBbAro6NtCab0xpJH8hnekC3bt2kVatW1j/Oi8k2O5OtrXG2TxXq2LGjdOnSRU4++WSg1cUjAPNmYYKgC9AKtAYeWrXu5MEHHyyXX3450GrwRYUAIbrc17VrV1m6dGkOwFWjq60iW6giVwQOukRKbUXCrqnlo+Z5I9btt98uhx9+uPEAhkKwF5ORhOXl74orrpArr7xSTjvtNKAVaLUUCNOYBlqB1sBD65133mmdra7LYkRaCys9wBmB1kjrvffeK88880wOwDW4XzF06FDZc889rSVk0xWmCS5X0U2njvmOVnXq1Ek6dOggzZo1A1qBVqDVtoF8D0w/OQnakt/Tc7SY/JFHHint2rUDWgs00mr/7JdeekmeeuopmThxYnCpMost1w06//rXv0QjrV4bYHn5C+7L39VXXy2XXHKJnHnmmUAr0Aq0Aq0cbej0A36IyvTp00dOPPFE+fvf/w60Fji06s/XI0qXLVsmw4cPzyL+Be/RWhbsvffes+qyanUYoDW2D8OSHqD5rBdddJH87W9/A1qB1vBBazZLXqlT1PIbblcuS17RlsRe0LJZYdCld+/eVv7Wueeem7FSYGHQxe7xTJZIC4ouWrtVa3dq6giXiB7AoDD/yCOPWC92uSo1GBR7URsJiy7XXXednH/++XL22WcnVfKKPgrv3BjGOaCIwwUyO6VRtNisZzZ16dWrl7V7XJ10Mlc225LM9zvvoS3Zs5fRo0fLHnvsIT169Ei1W0J1/5tvvinDhg2TyZMnZ/R3YbvZs92KdJTTH9JH/uwj5oDyLdzNdtmIFdUuLEtDTlMolLxj3TV+4YUXSvPmzUkPMPgCP6RwON/4c5kvqeXQtMi6VpYoxGvdunWiELNw4cKyn4+vM1tCWHTp3r279QLfunVr0gNcBn2hzI358rvZTD8CWoHWwFcPuOqqq6zKAaeffjrQCrQmwJmmj6httGnTpqC49auvvrJe5lasWBHzu8MCZ4X4gp4MhPTs2dOqHKApAsCZecijS3B1AVqB1sBDqxbT1h2zeqpPLqN42XybtF1KtguRF8rE76xdWQjkqmB67LHHypo1axJ+LtAa7kirvqSdcsopcsEFFwCtRFotBcK02ga0Aq2Bh9Z//OMfoktiWkEAaE300mFyWBWBeY203n333XLUUUeFnlvr168vH374oZXTG38BreGG1ptuukmaNGliRdmJKAY3olgRXxf/q8M0BwCtQGvgoVXrs2rZK40sAa1Aq62ACc40TWDSpEny17/+NbTgqi9v8+bNk4MOOsj4G4HWcENr37595fjjj7fKXgGtQCuR1qgNMBgYDH4ZDLoMphG0Ro0aAa0GswzTW3Ymog9HH320vPzyy/L73/8+dOCqtTkfeugh0Uir2wW0hhta9bAVXU24+OKLgVbSA0gPsG0AaAVa/QKtukv2vvvukwYNGgCtQGuZAl5wVrNmTdm8eXOooFVXHHQTzgknnBD41RO7Y3jh2s1oo1666Glnhx9+uGjaFPM087Rf5ulMjWnSA0gPCPwEpzVaR40aJXXr1gVagdakoPXf//63dSDF+++/Hwpw1Y2IGlnTDTh6oEulSpWItDoUKKQNjf369ZN69epJ+/btgVYireGLtBYXF5c4+7WkpMTaaeZ1kpXer1GMatXcjzTV5+hVVFTk6jwjp3FZJzK53UNbzNqhS6wuWj1g8ODBUr16dWzXMNqwF/M4+vzzz+WOO+6wjnwN8qW7xevUqSNnnXWW4HfNPVlIujz44INy8MEHW9UDmKfN9oAuwdWFSCuR1sBHZTRi9sQTT1jQykasRGfEEqv7Euvbb79tvfDMmTMnkNw6aNAg+dOf/iRaq1ivQoooOjuMZfBdavTv318OOeQQ0TJv6EJ6AOkBURtgMDAY/DIYtD7rzJkz5Y9//CPQajBLoNU7L3DVqlUyceJEmTJlSqDAVY+p/fXXX0UjrfYFtJq7sJB0cb7IME8zT/tlnrZ7oqLzEZFWIq2Bj7TqxpMFCxbIfvvtB7QCrWUKpLJLfu7cubJ06VLRpdUgXLqyEEntkgEDBsQ0t5DgjEjrL8YUPT26+IADDrAOXAFagVaglUir55yGk8i9kzjyyCPl9ddfl7333htoBVrTglb9kILg+vXrZeDAgb7mVq3B+sILLxgBG2gl0nrPPffIgQceCLR6jGLm6dzP00RaHZpjgME1wEwsa2p5l7feekuqVq0KtAKtaUOrflBrnOqS+4033uhLcNWXs0cffdQ1lQFoBVrvvfde2XfffaVr165EWl1GMcwQXGYgPYD0gMCnB2h5l9WrV1u/g41Yic6oojlEmXixyNRbdi7aopFW3dzUuXNnX4GrHsuqpx0tWrTItV1AK9A6dOhQ2WuvveS6664DWoFWS4EwzQFAK9AaeGitVauWbNy40Sr3A7QCrbYCqeS0xqum57c3btxY2rZt6wtw3bJli3To0MHaMKblrdwuoBVoHTZsmFSpUkW6desGtAKt4YPW7du3x9Rptalc66d6XepEa9So4XpLMnXxlP7L+55k7qEt5m4oBF201q8e37pmzZqywVmeTRWCLvEWwTgyjxEvXa699lrrVKHmzZvnFVy3bt0qJ598spUCg+0Wrq9LdkzrZkKts3799ddjLy4jl3EU3HFUtGPHjhhoVSeuIFC5cmVPR61HIOpRiG7Xzp07rUMDvA4piHy39Xc3yKAt7qV66KNSy9PI0jHHHCMff/yxtQSCLuZIK7qkp4ueMqVnuR933HF5A1ddSfjkk08sf4rfNXcDuuzSRfOyNWh0ww03YC8uoxZ7Ce44Ij0g2ncVWUp0dj8J3ubBkC1dfvrpJ2nSpImV0xqmvB1bRZZ7zfaUS1308IryluWzRbT6Qvbiiy9aG2v0ytY4crafceRd19frJEg/9JGzfi/2ktv5iHFUelqqpqd4BSMrksYHtAKtgc5p/b//+z9p1qyZvPfee0CrS0oPEFJxCLn00ktl4cKFVv3LXF1nnHGGBcvOFS0gBAhRBbzG9JgxYyxw0Lxs7AV7Kc9eghZ0A1qB1kBD67fffiutWrUSPdUIOKs4nLHJJ3GSsyf+unXrWrnT5aVOZQJq9dz4u+66S4466qiYxwEhQEh5EDJ27Fj597//LTfffDPQ6jIYGUfBHUdAK9AaaGj96quv5MILL5QVK1YArURaYzxxppepfv75ZznxxBPlo48+ygSXuj7jyiuvlMsvv1xOP/30hHuYbIM72dotz3Zqi9bx1Zd5zcXGXrCX8l5yiLRGFcj2wAya0LlyWIWmy2effSaXXXaZvPbaa0Ar0JpVaNWHf/HFF3LRRRdZL0nZuHr16iWaQ9umTRvj44EQIKQ8CJkwYYJ8/fXXcvvttwOtRFotBcK0CkmklUhroCOtugv0qquukpdeeilUA5OXnA2+rUeqKQKaL7hgwYKMcqumA2ilAI2yul1AK9BaHoQ8/vjjoi/zd955J9AKtAKttg3gPHGe5TnPXER9i4uLrXqES5YsAVqJtGY90mp/wcqVK60jX59++umMgOuoUaNESwAqDHtd+F38bnl+d/LkyVapq7vvvhtoBVrDB63btm1LOFwgGS9cXnHeZJ6RqXtoi1nJQtBl3bp1csstt8js2bOTNqdC0CVpMRw3oktq42jx4sXWkaq68aUil0KGvnzpcm55F32UWh+Vp2c2/p7vPtIXKT0hsF+/fuUeLpCN3+/2zHzr4mwXbQnuOCqKFB1POFxA3/i1zpbXpYOidu3arrfoM7QYtp4H73Zp3qvuxPWq50VbEtXT/BR0KdVFz2PXZTCFVnRxrx6AvWRnHE2bNs2qETxkyJC05n+121deeUUeeOABxrRBQcZ06mN66tSp1mErgwYNsuCVeTrRsNDF7K6CoAs5rdG+y/ROYy9Q11PAvGCetpjVs3XR09a04HrLli3l3XfflcGDB8usWbOs2oSbNm2Sww8/3BMgWGI1y4Mu6emiaQKRFSurxFAql8KqRlk1BzFMGyVsDdiMa7aGbOmitaqPPvpo0RepDz74wHqReuGFF6RevXquR65nqy2mX45/Sc+/0EexugGtQGvgAFoBoXr16vKnP/1JunTpIsuWLZMGDRqInrmtlQQeeeQRoNWhAECU/fq1w4YNk/3220+uueaapLj1/fffl/79+8tzzz1n3U8fZb+PwhwsUEjVEmnHHnus9b9ffvml9SKlkfyhQ4fK1VdfbbRLgCi3LxbAfMV9HdAKtAYOWjWdpGfPnqKbV/bee2+pWrWq5aD1f3Vn9x/+8AegFWjN+nGC8RHFO+64wzoM4JJLLvG0P2fFC/tGoBVodRpNOqttesiKntq2//77iwL6N998I3/+85+tMm2s/MUqQNQ3uFFfoBVoDSS0/u///q8cdthhVhFtvfQ88BtvvFFuu+0269+9LhxWcB1WPCj6Lc1GI61aY7VFixZGkX/44Qc588wzrbQW5wW0Aq0VhVbNY9Uav9999531KH2J79OnjwwYMABojVOAOSC4cwDQCrQGElq127p27Srjx4+3elCXZnVJTCd/oDXWIQFEuQWiSy+9VG644QZp0qRJTEeUlJRYm2I07zr+oo9y20emKTud6KbpOfkEIj344plnnrGadeCBB1qHYHA0c2Iv5bOP4ltDW1IDaKAVaA0stH766acWGPzf//2fdU573759RXO0gFagVRXIJ4ToJsHhw4dbudb2deSRR8rrr78uv/vd74BW/G5W/O769eulWbNm8v3331sbVM877zyg1cBEgGJqoGjf7Ycc6KyWvNLcQ82tcbtyWfKKtiT2gpZBCrouHTp0kHnz5lngmsnyOEHXxdnb6JJ62SCnfsmUgTHZyymnnCIzZ8608gpPPfVUq1LAIYccYnSH9FF++sjZGWGZj6644gprA5b6xHRtN4y6ZGJMo0v+maGIwwVcmTqtP1C02CxbtnTRzQbqnA899NCk+ytbbUm6AY4baUtu7SXXfXTMMcdIzZo1rUoBDRs2TOfrYz6DvYTbXipsIJEHaJ6//lO/fn0OF3ARlHEU3HFEegDLVFlZpoofEtlajundu7e15PrWW29RNohjXGPMLp/pAXZDFB62bt1qlWfTA1u8DlIhtSVxIiXXN/VcXz2+de7cufLGG29Y0EpOa6JdZWs+il/hYkxnfkwDrUBrYKFVi7lrJKtx48bSsWNHefnll8lpNbxAM/GnPvE7ZWSCM0dl0MV/umjZNc2jbtu2rWgO9fPPPw+0GroJ2/Wf7SYb6AJagdZAQqsWc99jjz2ke/fuVg+uWrVK7r//fnniiSfYiBU3+oFWoNVpEn6IQNvtoS1meEhHFz0KWDehXn/99dZDv/7667JTA93SDvywscZuG20x9xK6xOoCtAKtgYPWp59+Wj755BMZOHBgjDVrVGH+/PmciAW0WgqkM/Gbpg2iMsGNyhQKED366KOitau1TrXzWrdunfTo0UMWL15s7ESACFB0KhAEXwe0Aq2BgtbXXntNZs2aVVafNd7lTJgwQb766ivp16+fW3BBgjAwC2Wydesk+ghQVAVYJSh/lUArVGhOv640mS5dhdKVqenTpyf8GWgFWoHWqAIMBgZDpgeDOt977rnHKufidd17772y7777WocPEDlj4mfzU+woIAJt9h5B1EU3oepL/Lhx4zx9okZan3322YT7mKeZpzM9T2d7HBFpJdIaiEirRk8vuOACa0dsMlevXr2s2pj6mfiLKB5RPKJ4VDKIHwXZnmwzvXqyfPlyGTNmjEybNi0ZlygzZsyQt99+OyYiC7QCrUArkVZ2axr8QEVA8bfffpN69epZy/qpXJdddplce+21cvLJJ8d8rCJtsR8UtAmO0iuJlsPSc/lLz17jjXGUv5e/tWvXSs+ePV1zVd36TY+91jJsdu4r0Aq0Bg5ai4uLS5yN1vOx1Zl7nWSl9+uk7XVcpj5Hr6KiIle/pzCiS3du99AWs3aFpsuFF14oL774ohxwwAGpMKt1rx5pqGVgnCcRYbtmGdEFXVSBQvMvdq8HZT5S6OzWrZsVNU3n0hSrnTt3yj/+8Q+rr5mnE1VEF7Nl+UEX0gOifUPkzH3CzmdR9HPOOcdazjr88MPT8c/WZ4444gjRpbR99tnH+v9EiMxSogu6qAJEoP0bgdbIqNZf1aoAFbk00qontGlAQANUlSpVcn0cc6M/50Znqwqpj4BWoNW3DuvKK6+Uyy+/XE4//fSK+GfZvn27HH300aJLakCru5RAK9AKtPo711cPDnjvvfekatWqFfKJ+mGN1p555ply7rnn+nYOiP+RhQRn9m8nhSPWCoBWoNWXDss+7eriiy+usHPWB/zzn/+0Ts169dVXibS6KAq0Aq1Aq3+htUmTJvLcc8/JH//4x4z4RH2I5v136dJFTjvtNCKtDgUARbM5+EEXoBVo9R20xp92lSkPrSWzhg4dKkOGDGGznEFUoBVoBVr9Ca0tWrSQUaNGWRtSM321bt1atEygpguYLqKbZsXRJT+6AK1Aq6+gVcu3mE67ypSj1lOztBj35MmTXR/ph7dJloY28GLBiwX5tZGNypdccon07t1bTjjhhEy5wYTnnHLKKTJ16lSpXr16wt+As/zAGXOAeQ4AWoFW30DrSy+9ZC1/aVmWbF76fD2X2+3ULKDVv0tDOHJg3mSdYV0l0JJ9ulnqrLPOyqZLtJ7dqFEjWbFiRdmGVfsLgVag1U9+F2gFWn0BrXoM4aBBg2TOnDlZd876BV6nZgGtQKtTgbACESeFxdq53+DsrrvukuOOO07atWuXE5/oVg/bb7rks5qNsyPQJT8wXxTZWR1Tp1WboSVP3Bya3cwtW7ZIjRo1XAdTMvW8kvmeZO6hLeZuCIou//rXv0Q3XCV72lWmPLgW527atKmcf/75MY/Eds0Kowu6OBUIin/RNgfNdrXM3x/+8Adrk1Qur++++86K6mrE1b6SmYOTuQd7CfY87ZdxVLRjx44YaFXj0zeuypUre46VzZs3S82aNV3v0eLFemiA1yEFke+2/u71xk9bEiUOUx9p/2oN1lRPu8qUI9cC2127dpWTTjqp7JHYrllddEEXpwLMAWZ7qKguY8eOlW3btknfvn0z5eZSes7GjRvl6quvliVLllifY542y4cu+dGF9ICo7oT6zQaYbV10+WvRokVpnXaVkif2uPlvf/ubPPLII2Ubf0gPMIuFLujiVIC0CbM9VESXp59+Wj7++GMZPHhwptxbWs955513rDY8++yz1umXLMknyogu+WEGoBVozVtOayZOu0rLIxs+5Dw1CzgDzoCzXzyP6VZ9KgJntr5M/Lssbf78+bJw4UIZPXp0ptxahZ6jG2OffPJJGTNmDNBqUBLbBVoTFOA4Qf8eJ2h3Vrp9lKnTrirklR0fdp6aBbQCrUAr0Bo/CtL1dfHPMfmXZcuWybhx4+SJJ57IlEvLyHM00qoHsowYMcIzjU9/U7Vq1Ty/k5eczEfmC/Hlj0grkdacR1ozfdpVRrxz5CH2qVmay8V53ImqAvPAPDCfeTj76KOP5NZbb5V58+ZlypVl9DmPPfaYfPbZZ6LVDExXNmE+/vuIbuYnuml/qx/mAKAVaM0ptGbrtKtMeWk9Neu+++6T6dOn51QXt/b7wUn4yWHRFuq0msZKUKN4n3/+uVx66aXy+uuvZ8qFZeU5I0eOtJ6rFVdyGYEGWkWYA2KtAGgFWnMGZ1rSKpunXWXKW+upWZpbprlcbhdv/LzxA9AAdEUAWn2IVi358MMPM+W6svqcu+++26oYdPnll8d8D5HW8KbxxRuUHwAaaAVacwKtkyZNsmr/Zfu0q0x57YkTJ8qXX37pemoW0Aq0Aq1Aa0WgtX79+tZLvFdZyEz5s0w9RyOtp59+urRp06bskUAr0Oq0r2zPjUWRenAJhwskY+DlFQpO5hmZuoe2mJX0iy6rV6+W/v37i+6ODdI1ZMgQ60jDq666KmvN9ksf6Q+kLf4eR/SR+zAMmu1qhHXp0qWy3377Zc23ZOvBV1xxhZXScOqpp6b0FUHro5R+XAVuRpfU/G5RpLh7wuECWjRX67J5XVqAuHbt2q636DP0cIFKlSq53qOhZj3EwOtwAdqSKJ++2QZFl6+++kratm0rK1eurMCwzt9He/XqJaecckpMZEFbg+2a+wRd0MVWgDnAbAvNmzcXXcnxOpwnfx4vuW++4IILrFWoo446yjpBMyjzkf3r4BdzPwdBF9IDon2X7ZC2bSJp5YRsGClN6/aSROxrIiOKV0jPOmYDzPfmBLezrJNzi/6567LLLpNrr71WTj755LJG5dxePh2dYANNRhTLikjnG9uiNtNRZMqKnlIrMqlQksb88ocuAdPF1RceHfGF77r6wrT8bpw0mVgG//vf/27B3tFHH+0fB5dmS5o1ayZaWeCQQw7JvX/Z9KDRHy67oZa5LQ5/qNNlvudGp+S0JTV+AVqDAK2OPt0wsql0LJkkL15zsO/r4vnhtKs0/XHCx+JPzcoLtEYhNP4dBWg193LO+8hjVYm2ZL6PLF8oU6wXtyBM/J06dZIOHTqIwl5YLoVvTXPYc889czsfKbQa/KHriwXQmvsXi92yk+sLtAYZWr8YFxm4a6WRjJfxK7vIguIGMrBsIG+QO45pJwfMiEQfirtKUavxpb+0ywIpGdfS+tdsRh/8dNpVpiYI56lZOYcQjbR6QOtnY8+Uer2jsXjt4z6fRO9vLfOa1hX7T3Z01tJkYaxdFPepW3aUrUmzbNpL/PcFAULsNqOLeYRlW5cEaJXnHf6wiTRo0k7mRlYaIkgrDzRuL7tNXia960XS1eLs3vaH2RzTvXv3ttKMdFk9bFetWrVEa80quHpdGR3THtC6ZlhTadT3zdj5rgxaW8vzEX/YK+oqXf3hVXNkx9hWOdmknFFdsgSKfvJ1QGvQobXuDGlnpwjEvE1GoXVoR5nRr3SZWCN0C7sWyew2JaLcmq1JxW+nXWVqknCempXNCc7Z3rI+ik8PaDJCiqN9+p+PhsqZXSpF+rhXpI8XStei2dLGfoHpt1bqPne+bBvVLBIJeaX0byXjpGVc5EHtYsoJxTL1Kpdckyy/5ACtpHCYxqnXkrwRWm1/KLu+Ro6bAAAgAElEQVTSY2KgdffYlz+nP8zWmNZSUX/9619FNzCF8dq6dauVOlVe6a6Mwll8ekDUH9ZaPyLy4rJTnnyjzy5f6PR36g9nt5HSF/RiV384t3ORzGuzQx5t7b4nJ1v2Em8j2ZqnTbaY0T7KEkADrUGHVmf0zQSt1x8vvTpHo6zR32q/XWZjMPj1tKtMTRb2qVmLFi3K7Xnc5URaq3w2Vk6u1zua9xzJdV7arvRlZYpIRzsf2hFlj4k2RcU5+val8u6gM12lyoa9uH1ZEJynn6IPhdgWc6Q1+oIe5wvLIq2brt+16hTnD7MBIVqUXzck9+jRI1MuyJfPsf2iHvmakzHtlR6wZpic2ajvLl+oQR37JSYFf9h42DpZ2bue6+/Jhr2Yvgy/G6sK0BpaaF0olxbdLidOiEDrqjZlKQHGKF6GcvH8ftpVpry9fWrWzJkzc3cetxe0zrlK9myzuywoGS8trUjrQGlgQ6u9EcvhyLssiETaJZIaEIk42Eujqg2gaLYQdPGnLslD60LpXNRfDlsXSQ9QaI2ze/vXZRpCtDa1wpzb8aeZ8kd+eY5GWnWT2Zw5c4xNyug4coPWBV1k93N+i/jCibt8oRNao6tTG168Qzo2H2yBrckfAopmq/KDLlkteaWlrLwKJ+eyPE5Y2rJh1Mlyecnj8tK1NcSKrl0hMmlZD2vpXzaMikTb1sodv42VFpF/P67eE9JhSQeZedZMueiTZdKjzgYZdXI9WXvHbzK2hVhlSjKlyzPPPCPr16+XgQMH+sWHZrUd9qlZDz30kPF7MlkGxuqjzaNj+9rxrb/Mu1r2fP4C+W1cK5FF10Sc9kcyfMlFMjNyVHj/i2bKWWtuk20PnmlFhhdds7sMavCJLDtnfsRWYu3izavWy9NXepexy5S9ZKKkHm1JNL1Mjmm/95H6witkkizrUUesUj0lz+8aI3G+sGm96XLR2tel126RcRRn97Y/zOR8pLWply1bJsOHD8+qH/Lbw1977TV59NFHZfLkyQlNS6acUtJjetNDRn/43wVdpfJzreW3R8/d5Qt17pPI3BiZKy1/uPYOWR9JD9CSnW7+cHjTevLJ7b/KuHN2d5U4k/ZSXvnQpHXxWJLPVFmyfLeFwwUyPOqzXSh44+hm0lkmyMvdInCxcbQ06ywy4eVuYqPGkm57SpvHIj/qxE7S7pd35bgnVki3jd0ikTj9j5Gr02zZNvqsjP5q3T06d+5cy1kV0jVhwgT57LPP5JZbbkn7ZydtL4a+3vWlS6Tbnm3E6uHIDuVOkTI08sj98vGkUtvYaNuE/v3E+2W1bS9LYu1iXd/6UqNGjbR/SyY/mLQumfxSl2fRFrMw+dbF6QuttuyYG+MPnb6wk3ws9Se8LOo2Jc7uM+0PdQXm5ZdflscffzwH1um/r9C5YPHixfLAAw/ENC6j9uLqDw2+cPY2GV1711yZrD/MtF249VRGdamgOQShLaQHRDs500tDbrbjh/C63bZMtOW9994T3WjgtiRUwTHk+4/fe++9su+++0rXrl1j2pqJmo76wEz0EW3JTumVTI4j+igcfaT+UNMBFNwK+XryySdl3bp1MmjQoDIZMpoekKVNPoxp/x/NDLQCrWmX9dDTrrRYdlBPu8rUpKKnZumRhs5yNkBIOCBEbYTJ1jxS0CVWl82bN1tHPr/00kuZci2Bfs7o0aNFK67cdNNN1u/AXhhHqkBF50agFWhNC1rDctpVpmaF+FOzKjoweeP3/xs/fUQf2Tbwww8/yJlnninvvvtuplxKKJ4zePBgOeigg+Tqq68GWl16FJhPDeaBVqA1LWgN02lXmZodnKdmAa1EWp12RfqReZSFQZeSkhJrU8+mTZsy5UpC9Zw+ffrIiSeeKEcddRSHlxh6FmgFWhMUIC/QbBTp6hLG064yNUvYp2bttddeoTk2j4giEUXT+GCyLVXlyCOPlNdff11+97vfZcqNhO45GmnVAwguv/xy19+W7nzkfCDBgvAHC4i0EmlNKdIa1tOuMjVL2Kdmffzxx0CrQVQmlfBPKoX0knPaaafJE088kf2qG3En2GXKX+XyOZrzf9ttt8nxxx9v/FqgNbPBpbDCPNAKtCYNrWE/7SpTDtx5ala1atU8H0u0KrWloUICIqKbFd+0kU17Of/886261Lq6kvUrBNCqGmkK1cMPPyx169ZNkAxoBVqdCrjNjUAr0JoUtI4YMUL22GMP6d69e9b9s36BnnZTt5eeVxK5nMeP6v9fGDnNaWADKY6ebuLaIHX09hGm0iVySsq4yCkpubnsU7NmzZoFtDoUINJKpNU5IIKa06rL3FopQKuG5OSyoHWtNJLxMr70GKfYUw6T9YmlzjVvflG//oQTTpD58+fLgQceGCMd0Aq0JgWtxcXFJc4bNalcJxavk6z0fnU2XlEkfY5eeu6y26U70PV0Bbd7gtQWzWlavny56G+q5HEsajK6qP6qiZcu+hzVzuvauXNnhduiv0d3xjZu3Fg00pqTKyaqoMeSzpY28cDpcLzWMXwJNBo9zlSP8IscF2ZB8Np+xuNss/Wb9NAFhX3dPetmE5noo3zbi35/69atpVGjRpb9h2VM23aBrzOPkK1bt8qMGTPku+++M94QNF+XzDjS8aq/V1/ezzors4e0eL/dloJmI8vXbZCRTevK2n5xfq9cn6jfkH+/qK3QjVl16tSRPffcs+xnh9FeDjnkEGnXrp0nT+FfzJbvpguR1qheFX3j17fHzp07y6+//ip//OMfXf1PMscs6jMqV67sCa36HI18el3/+te/MtIWbY9OTgsWLMgW3yU+NyYa0ERGROHT1ICFXYtkYINiWaF0al8+WE4bMGCA1YcNGjRw1S1TfZRPe9FlnDfffFOee+4562VWj/90e6Ei0hqeSKuuIuhS77XXXmu07yD6umTGkab/aO56//79c+wP10q/6Mu7voR3lCmxPs/RGqNP1L/7wC9++OGHcuutt4ruj3BeYbQXPVxBo8rVq1d3tRVSxMzSkB6w++5JLYOnO9mecsopMnXqVMuZ6Ruk2xXUJRA9U1rPk87J0YS61NVKosv5sZGBGCiNLv0bI615ds5jx46Vb7/9Vu644w7vAEoE+IJuLwqsGlGeNm0a0OrS22GEeYVWPbJU+910BdXXJTMHPPTQQ6KQ1bt379yAq/USXw60JhNpzbNf1GNCO3ToIK+++mqCbmG0F+WC6dOnA62O3q5o4IJIa4YirWGHVnXkOvi0ePZ9992XXUet0Dq7TelSvgWwq2MjrUnlb8XBblKfyczP0oijOuUhQ4Z4ptBYgQ+g1Sh6GHRx/jCg1Ty2gqyLbsL6y1/+Ip06dcqM4/B6ShRIXdMDkvZv+fOLmk6iZa800looLzlAa2JPA60+mfgLAVrV/DTCoOkCN954YxYdtTrWVpEtB5GrSxfpMj7yb8a81XKakIcNB5rX/Mgjj8iUKVMKpuQVkdZfrJw1r1z2IMOZ2ygr5EirrYkeUdqkSRO58MILs+gPdZIrZyNWKt+eB7+ozdP8Tk2tcLuItJqVCaMu+pvSraxDpJVIa8qTrS55169fX9q3b5+Kqwz9vRodvOaaa0Q3YFX0bdIWKwgOC2gFWgslcmaabLVw/iWXXGId48plVuDoo4+WiRMnyjHHHAO0xinAqpLZJMhpzXIkpFAirbZ5dYlEQNu2bZvbHbQ+nhF+/PFHOemkk8qWvoDW8Gw4YlIxDzwirbt0ueiii6zqKnq8NVesAqeffrpMmjRJtPJC0PP3nb8smdUT0gMSR0NF50YirURaU4602mbYpk0bufvuu60zpQv90goBmu9rL3lUdGASaQ3+BrVUJ7iKLJnlw16A1livp4XzNTXIC8wKzU8654hCfPkDWrMArZHd7jF1WvUrdMItrwao7gKsUaOG6xhMtuZaed8TlLacccYZ1nF+WqeykHTRYwx149Gf/vSnQvPHZb9XNZgwYUJCvwfFdu0fku6Yfuutt+TBBx+07D+Z35zMPem2xWmEyXxPMvfQFvPQnjdvnlUKT/vddBXaHKAa6EajhQsXygEHHFCw/tD+4VdccYWVQqbgplchjiObC3TDnttViLpUxO8WRcp2xECrPkzBS+vVeV2bN2+WmjVrut6iSwFao9LrkAItGaJ/9yoxEpS26BLIk08+aZVBKTRdNMq4fv36cg+kCKMX12VB3ZQWvyxYSONIT/8aNWqUPPXUU5b9h2VM2/aKrzOP3NmzZ1slr7TfTVehzQG2BvXq1ZN169aVO4eG0R/av6lHjx6iL/PnnXde2c8sxHHUrFkza3x41WktRF0qwnWkB0SHVDL5KV7Ld4WW02p7IoWzL7/8UnQZ6O233w6zH074bd26dZMWLVpYp0HFX6QHkNPqtImK+hf7WX5aYiU9wOzuVq9eLZdeeql89NFHBeUP7R971113Sa1atUSPunVefrLdXLWF9IDEIVDRuRFoBVrTzmlV6WwD3LRpk/Tp0ye3p2blcUrQ067+/Oc/W6egma6KDkz7mVQPMHdyEHQBWguzqoICkea2X3zxxbJs2bI8eqncf/Xw4cOt+eSGG25I+PJcgaKfcsOBVqDVOAr9MBgKOdJqO4lXXnkld6dm5d4fl32jfdrVbbfdxnGlEVUoeVWYcEak1eyE7PlozZo11ou8HuNZCJeelqj5mRppNV1+mKdzvWIBtAKtvh0MQGs1q29ydmpWnmYB3XSmR9rec889UqVKFaAVaLUOkeBwgcQBWai6OOFsxYoVMmbMGNe83zy5sYx/7bPPPmtFlTXS6nYBrd4vOW66MY5ilSE9IKpHRXPOgNZSaNUrN6dmZdzvlvtA+7Qr3XBXUXvJ9Rt/NpfMiLQCrabBw2RbqsqCBQtEKy1oOawwXi+99JJVQUIjrV4X0Aq0qgIVTZ0DWoHWjOS0xh/JFrZTs5ynXanJAK27HDDQCrQCrbsUMMGZrkC9//77MmTIkFBxq9amHjx4sFU5J91jOW1BwviSQ3pAorkDrRFN/PAGR6R1V6TVNtOwnJoVf9oV0FopxhMBrUAr0OoNrfrXcePGyQ8//CC33HJLKMBVN9/qEbYvvPCClSIDtMZ2q8IZ0JoFaN22bVvC4QLJjKjyCuIm84xM3eOHtjRv3tzahFTe4QKZ+s3JPMcPuugOWt1pH+RTs+rXry+am1aeU06mT+Lv8UMf2W1Kty16uICmhEyZMiUdCYyfSbctGWuA40G0xayqLnlrndZM9nu6/ReUPtKcz/3220+uvfbadH+qLz737bffytlnn51SdYSg9FEmBba5oCKHC2SyPeU9Kwh9VBSBrITDBbRAuG4y8bo2btwotWvXdr1Fn6GHC2j5C7dL3870EAOvwwWC0hYtpKxFhPU3oUtsj5900kmiifpBPDVL+1XPzT7kkENiflSYbNf+YemOaY20jhw5UqZOnWrZf1jGdEV1cRpMGHXRMa3Qqv1uugptDkjWXjTSeswxx8gll1xSHkP48u96aIQeKPPJJ59Y7dOIYlDm6WT7KFO2q/OHjg+vwwXS9bth9y9uupDTGu35iuYokh6QmB7gHFRabLq4uDhQp2bpaVd9+/aV448/PmHyqKi92A/0Q2pLRdtCegDpASa6CmOOYqaWwXv27GmdFtWyZUtfgqlXoxo2bCgrV66UffbZpwxaM6VL2KpwkB6QaEnktEY08cPED7R6Q6suIeuSWFBOzfI67UqHIdC6yxkBrUAr0LpLgWTno44dO0r37t2lSZMmgQHXk08+WaZNmxYTOawohNg/PowvOUAr0Goc3Mk6Ca9UhYpCCNDqDa3aR+qUgnBqlubgaiqDbjJwuypqLxWNbjrble+2AK1AK9CaOrTqfNSqVSsZNmyYtdzu90uPq7733ntFI63OC2h1P7IaaAVagdaIAkF2En4/NUtPu/ruu+/k5ptvzkopsHgD9sMLV0UBGmgFWoHW9KBVP6U5/5obrMdC+/Vq3769tVKmbY2/gjwfuemdqagv0Aq0Aq0Bh1btQL+emmWfdqXRhLDlVmUz5wxoBVqB1vShVT95+OGHi6ZQ7bnnnr7j1uuvv97KvdVIq+kCWom0Ou0i2yt/bMSKql1RoUkPKD89oE6dOmW27bdTs5ynXWXqLTuboJhLJ2F/l5suQCvQCrRWDFp//fVXadSoUdmOfL+Q6+233y6HHnqodOjQgSOr4zolGWYg0pqFSGs2S15pKSuNWHmF4HNVHifbbUml5FW222LrnUwpjXy2pV+/flYuly495fOyT7tasmSJ1Qwtd5JPXZxaBKEt+Sp5RR8ljppc2ksyJa/oo+T76H//93/l3HPPlVWrVuXTHZZ999ChQ63Ib6dOnXJWxi5s9pKpkldh06UiJdKKOFwgM/6BwwW8dXQrWqy79PUAgrPOOiszHZHiU/S0q6ZNm+ZtoghCMefyJOVwgfIUytzf/WQvHC5g7teK9JG+QPfu3fv/2zsPsCmKbH+f7y+IuAq6ZkUWBFa4hmtWwBzWnDErrnlV8IqKqOguigEjSVx114AioihiFhWzgIkVvS7oJ+BiuOKaA7KCD/85xdcfPTPVPT0z3TMd3n4enr3Xr6e7+lenqt46deqUOWWqntett94qn3/+udk4G9ZVjS5hlcF5Tq3KwuECldecVx0RHtCkaRBXv99yL+EB5YUHuE35oIMOkkGDBtXl1Cz19Or52e7TrggPsHc0hAeUp4v77mr7F+dZcdq49+CDD5oNRJoCyXbRjiqzF50EXnPNNUbbelz333+/SU2oZdArjbZbq3ZEeECxBVcbAw20Aq2x2CW/3XbbiW6EquWpWbp0o0dQ2k67YiNWcWcDtFYGIWkd+IFWuz2EAURPPPGE6Q//9re/1ZRbNURK6/WWW25pfi/Qaq+CILoArUCr1XrC6CSCGCCe1vAN0Hmiaqs7aPVoQL846LB6cL/TrvAQlQdnbMRiIxae1mUKhDUePfbYYyZsSWNLa3FpO77hhhtMdpe0rxKEVUd63L3fMfRAa/jMgKcVT2ssPK0Kit98841JqxL1qVlnnHGGSertlcIFaAVa3QrUaoBLWrYJPK3ReVodJ8rtt98u8+fPF93FH+U1a9Ys0aNln3rqqaLXVOvQcR6YxXYEtAKteFpzClQbE+L2bsZtGVw9rVGemqWnXa2wwgpy/vnne44BQCvQCrT+Jy/O22YRQGv00KpePD0xSz16umk1iks3XOm+gmnTplkfD7TaVQ+iC9AKtAKtKYdWPdowqlOz9LSrb7/9Vnr16iXunLGFRgW0Aq1AK9Ba2Arq6SzQ9IAbbrhh6OkBFy5cKJtvvrnMnDnTk4eDwFnSVglq5fUFWoFWoDUD0KqVHPapWc5pV0OHDpVadVhZ6ciJaSWm1dYxM/krb/LnvtsGin379pU999zTM6ypEi9s165dTTjWSiutBLS6FAjLdoFWoBVozQi0akWHdWqW+7QrfS7QGu6yJtAKtAKtyxSIsn/p3bu3nHrqqbL99ttXwqh5v9GMLZreat11143Nvoa4havpyp/XFcQDDbRGAK2NjY1L3I9dsmSJiZkstYNbK8yd27KwaPocvRoaGjwrPXcal9l553VPkspy1FFHiXrx2rZtiy6WGq/UXkaMGCFbb721OUawkksHkJNOOkluu+225p9XWhb3+9Nku853VarLjBkz5I477pBhw4YJutitNI266M72sWPHmnq3XVkbA6ptR0H7lzPPPFOuu+46c+xrpZcmvR8wYIB06NAhU+N0repI36P2r1yg7WPttdf2hV9Yqlger/GI7AFNWgWZNZHyKvxZk/NEv+UY9SxoHGq5p2bpaVc9e/aUd955J6/gUXpCnBfVM/6tsJaiLgueVjytthE5rCXWrITZuDUsNR7tuOOOcs8998j6669fNrfqCYR66ta2224r1JFdvrB0wdMaPjMArUBrIpaGKjk1y3balVY30GrvqCvVBWgFWoHWZQpU2o7KgVadiG622WaioU8rr7xyYHA97bTT5JBDDjGxsXqFBWdMLOxwBrQCrdbGWatOAk9r+AYYxNPq3FPOqVlep10Brd7jW6XtCGgFWoHW2kOr7vzfeOONZc6cOYGgVdP8bbXVVnL44Yc33w+04ml1K1DpGFDuhKuaSQ6eVjytifC0ajXpkpnGcZU6NcvvtCugFWh1FIg6bKKWHXk5k79SS89BdSFPa7grFpXYi4LrbrvtJtOnT/cF1yuvvFJWX311s4nLfQGtQCvQ2qRA1hqDLgPce++9op0IOUCLO4KwZnAap6qnWXmdmqWbFPbee2/ftDBhlaXUEX7VzCbrASGV6oKnFU8rntbae1qd/mXu3Llms+lzzz1nJbBRo0bJTz/9ZD1QJWvjtCNQpX1duRMLwgOKTTLopNirjvC04mlNlKdVQVETYdtOzdLTrtZcc03505/+5Ot1qFWHBbSG32ElCebLHeCSZi94WuvvaXV2nb/99tty6aWXiuajdl+6Weu9994T9bQysaj9xAJoDX8MAFqB1sRBq6ZJKzw1S0+7+uabb8z52X7pQ7S6gdZwB1s8rXhaAaLaA1HhJKewT3z88cdl/Pjxcuedd3pO4vG0Eh6QuPCA3HJ2Xp5W/QB13yoY+F3z5s2T9u3be94SJEdfkPcEuScOZdl1113l7rvvNnkq0aXYLKKoowceeMCks9INWtphX3PNNdiuR4uMsh298cYbovl01f6DvCfIPVHYi00aymI3mCC6PProoyY5vda77craGOBoUE/b1TrRjAKHHnqo3HTTTcb7ynhUm/HI1gYcLlhvvfU8Wame9lJYqCSUpWHRokV50KqdlYJXy5YtfaFV42g6duzoec/ixYvNoQF+hxTk3m3+7gXISSrLzjvvLGPGjBH9JnQpNouo7EUHTN2EoAc7JMleHIWi0sVdA1Hroknmhw8fbvJGpqlNp6mO3PYQVh1NnDjRePK03m1X1saAuNjLww8/LOplvfXWWyUN/UsUtlsrXXbZZRfTPtq1a+fJSrUqS1q4jvCAJlOqdkctG7Fa+05yWJK3y5MGXQgPIDzAZt0sPdvbPLpkRxdiWovrmo1YOU3iMPADrUBroXczaRtrKm1HQCvQCrQuU6DSduTWsFonivMsylJfZwHQCrRaLTAODRNoBVqB1nEmly6pwIq7qTTqQvaA+gJRVibFSYZ5oBVoBVpzClTrXndEZJkqO8tUUQ5weFrxtOJpxdNK1pb8VqDjNNAKtAKtQKvvxr0o4SzJM/4odQFagVagFWgFWoFWVSDqVSU2YjXZWbVCEx5AeADhAYQH2H330Xfk9Vg9ITyA8ABVgJU/e3pQPK3eulTjRAFagdZEHi5gGy7oPKPpJEoBEZ5WPK14WvG04mnF01oTT+uCBQuKDhfw8ha4/3upJLRBnhHWPXEoy+677y6jR48uebhAWN8c5Dlx0MUpJ2Wx11gadNHDBUaOHCl33XVXELMMdE8adAn0oWXeFCddNJG95mkNs97LlKP59jjpQlnS29eVa58OF1RzuEC576zm/iTYbkMu4WzR4QKafFp3APtds2fPlk6dOnneos/QwwVatGjheY+6iPUQA7/DBZJSlp122skkEdZvQpfiKsde7M0gDbqop3XYsGFy7733GvtPS5t2aiwNdeS2vrDqaMKECQZatd5tV9bGAOwFZnC3A135Uy7Q9uF3uAD9S3ljI+EBTXoR02o3nGp1cZ4ah7RklCWauGPCAwgPsPUeZCex96nokh1dyB5QXNfVhvEBrUArMa0F7YpBpbxBBWgFWoHWZQowQbf3H1nUBWgFWq2tIQ6NgewB0Xjx3BWO1zee3nCgFWgFWoFWNmLltwKyB0SzMRhPK55WPK14Wo0ClU7+gFagFWgFWoFWoFUViNq5BLQCrUAr0Aq02p3YVemS9lUC8rSyDK4KVBuj6KiYxrAswgMIDyA8gE6CE7EKWkHUM9tSgwqeVjyteFrxtOJpxdNaE09rlCmvNJXVcsst5+nDCCv1SpCUEVGXpZyUV1GXxRE8DrpQlurTwMTdXuqV8iruurg7vjT1dc53BUl5RR0VD3+aCgxdsqFLWCmvsJdl9tLA4QI+64Jl/InDBfzFSkLS4jKqO7Rb06ALhwuEZg4lHxQne+FwAXt1xamOKEt964jDBUp2aZ43eNkuMa1NklW7xEr2ALIHuFtfluK8CA8gPIDwAMIDCA8gPKAm4QFLcldWB1v3d5cLrbmwCrn++uulZ8+e5p8Drbok//zzz8v//M//yKqrrlrUl6cx2Fy/iQ6ruMNKsy7z58+XUaNGSb9+/eSDDz6QoUOHyrhx4+Shhx6S//u//5MzzjjDOoPOEsxX0794uR8qzfAQVlnc9f7cc8+ZE7G03h9//HFRz8jpp5/e/Cr6Onstokt6dXFzQffu3Q0X3HfffeZ49zvuuMPKBfVu0+7aSEJZ8LRW4Wk97bTTTIe9xRZbyHfffScbbrihPP300wZWtfLxPuB9SDPMr7LKKiZmfY899pCvvvpKPv/8c5kzZ44MGjRI+vfvD7S6FCh3UhxXaNVyOfWug7ICmFPvl156qZx33nlAa67v79y5s+eyJ9CaXmjVL3O4YPPNN5dvv/1WunXrJpMnT5Y2bdpYuSAJoOjUWBxsF2itAloVVDfYYAP5+uuvTUeuBvqb3/xGHnjgAdlrr72AVpcCNEx7R51kXUaOHCnnn3++LFy4UFZaaSX58ccfZY011jAQoxsHbBee1uTrYqv3NddcU9QL677iMMDFabClLNmAeTcXtG3b1ji0Vl55Zbn//vutXJDkMcDWx0c9QQdaq4BW/akujw4bNqy57tTbOmvWLGbZBQrQMNMHrfpFa621lnzxxRfm41ZYYQW54oor5OyzzwZaC6o76o681kBUWO/XXHON9O3bF2jNKUBfl86+rvCr/Np0IRdssskm8s4771iFwV7KsxegtUpodc+qdDalAHviiScCrUCrWUsMvfwAACAASURBVDpNc3iAVrHb66beto8++khatWoFtKYcWrXeNQREbdzmZdXPx9NqHwbQJf26FHKBl5dVlQBagdYiBaLuJJxZlc6mNHch8UzFRkjDLK9h1tpzVk3nqV6377//XtTbdvLJJwOtlqpOm6dVP3H11VeXn376ydR7oZcVaCWmtbAZZG0M0BWn4cOHi5+XtZp+161vGvsXL3vB01qlp1V//sMPP0j79u3Nzul27doBrZZBO2sdVpZiN2+++Wb585//bMIEstR5JmliEcUAN3jwYONpd8JDCpt91M4C9/voX9I7KY7CdmthL+pt/d3vficTJ06UnXfe2V5BeFrL1qWhsbExL+WVZsDSAdfvJCt9iw5OfkufTiathoYGz0JpGgjdsOG+Z/r06cZdrpubtBxa8V6bOpwHL168WFq0aOH5niBl0XdpObzKq8/Qf2koi2q1/PLLy29/+1sD2Zqyy0s/Wx25ha63vaSpLLqRSXOefvbZZ8bu1YuF7dqbdTW66KZJbeerrbaayfix8cYbe/YdUfZ1pWxXT06aOnWqfPLJJyY7wy+//GI2vdHXFVdXNWOAhnVpv6528fvf/95kg7Fd9HX2sTwqXT799FN5++23zQY/tX3tE7M0Tjs2WE1f536GF7+o3SsPrL322sb+O3XqVBVLRc0MsfC0akc8YsQIGTNmjGyzzTZGNI2TUhF1ts4VrgLaQetyrnYGuRPRZOzYsdKrVy/54x//aAbxpM5sk+rd/PLLL00dvPjii3LUUUeZDmSdddaRli1bhlvxPM0ooBvGFAR1YuxMEnr37m1d4tb7a+GVcduubuS88847zcrN0UcfbZwD2h9qyhy9jytcBTQGWzNeaH+odf3WW2/Jsccea3Jqqq04V1L7l6SFqz344IOmP9Qxar/99jP94frrry86MeEKXwGdBGuOZZ0YaHijhnsdc8wxhgkKrzisntQdWjVAWWOiLrvsMpMOQlNGcdVegVdffdXUgZ6VfNFFFzUXgOVee12EpYvm9FMPgqaO8vLw1N4asvVGnTQoIOphIXpIwt57750nQC2h9YYbbpBXXnlFLr74YrMCwlV7BTTc66mnnjIhLwMHDjQAqxfQGm26Nm1nGge60UYbyamnnurr8au9VWTnjXpA0l//+lfR/73xxhtlvfXWa/74zEOrbmDSPKe2IP7smEi8vvSxxx6Tm266SZ544glTsLDgrJYDfxJ27KuHW6FEA/V33HHHeBlBRkujHbKCiq706KDpXLWy3T333NOk0Ntnn30yWgPx+2zNBqNe2CFDhgCtEeZenjFjhuGAu+66Szp06BA/Q8hgiRRajz/+eLnlllvMREKvTEOrBvBrWIDXyTkZtJHYfLIuj1177bXmtC+gNXxPq2p6xBFHmA5a44m44qXAueeeKz169JBDDz3UFKwW0HrYYYfJJZdcIptuumm8xKA0ctVVV5lTDnUik4U0doVVHvUYoMCq442GB3LFTwENUbrwwgtNFoTMQqsugWkcxVlnnRW/GqJERoEpU6aYpYHbbruNFEYWm6imI1cg0lPT1l13Xawtpgq4wTVqaNUJjL5P4/m54qmAjlm6F0DDeZKwkuOoGLXt6nuqCZvQWMrjjjvOxPNzxVcBXRXUUE5Nc6eb9P02g1YzNroViE3KK80OcN1115lAa654K6CzX91Zqx4GjuXMr6tKG+agQYOka9eucuSRR8a78imdie/WWFfdsBXVZhZdetOsEQqtXPFWQCcX5513nmy99da+BY07KLoLX2/P2f7772/SphESEG/bz2WZMqvi9913X/agVZfBdNNJqYYf7yrMTum0M5kzZw7QWlDllUDrv/71LxMj9MILL2THgBL8peoN1+wC6l2LAlo1NYxm61DI4Yq/App+TDfqqcfJ7wJa7eoU6qIApE6sq6++Ov6VTwnNhG2rrbYyWQXq6mnNxZXm5Wl13P2l8pGqW18T6ntdttxievauLrPce++9mEBCFNAORfO5akogr0uXh6Kwl8L3BXlPkHsqsd0wynLFFVdIt27dTForrmQooMtimo7PL5dr0DyKhW3kjjvuMF5WHQy4kqGAOl00vs/ZmGIrdb36l6SVRWPGdSOqX17QZFhFNkr5wQcfGIej7nXxy78fZAwOco9XO2rIJbDOg1Z9mHoASuWInDt3rnTs2NGztjSnmn6Y+5ACnaVqPFCfPn2yUcsp+Er1NGkqIK9wjijtpVA+Tbau9uQXqhCV7YZRlu23396cjqL5h7mSoYACpZ5qc/rpp5fV1wWxFw0RueCCC4z3gisZCihkaR/jtx+jkrExiL2470l6v6urTnrk8/PPP5+MiqeURgEdw3QDsZ/DMupxuqZ5Wv/0pz+ZtBZ+s1RsI34KHHDAATJ+/HizIavwqiYI3/2sesdWRV0WjQnSXci33357/CqYEnkqMGnSJHn88ceNt9XrqsR29bQzTeCtkxiu5Cjw7rvvih5bPGrUKM9CEx5gl8ati4ZYqCeNVYbk2L6WVHPq6yRe47u9rkpC52zPisVGLF1qU/hh13SyDHWHHXYwIR165CvQulSBchumk42BDYjJsn2NY9SOWjdkhQmtOmBr0vqXXnopWYJkvLR6tKh6yF9++WWgtUmBShwXGiaoq7nkaE9Wg9LVcl1B10MgMgGt6rFTz0Kp+MdkVWP6S6tLYSeccIJsvvnmQGuTAuVCq3rrdNOB5uLkSo4CutSrMYwaxxUmtKotaEyr7pzmSo4CGhpw8MEHyyOPPAK0VgGtuuqkWVRUS67kKKBH7KoHdMCAAdmAVo2B1UGAK1kK6MYhPYd7u+22A1orhFZt7Oq103RvXMlRQGPv1P7VUx4mtGqsuHot/GA4OSplq6SlxjHCA+z24NZF0ydtu+221vPts2VNyfpazfighw/p6pPXVa5Dx+s5sQgPKNXYk1V92Skt0Fpc1+U2TKA1me0FaE1mvUVZ6lLjGNAKtEZpf/V8NtBaT/V5d2AFgFagNbCxpOxGoDVlFRrC5wCt+SJWEtOKpzUEQ6zDI4DWOojOK8tXAGgFWsu3mnT8AmhNRz2G+RVAK9Aapj0l6VmxgNYFCxYUHS4QRMRSCZRtz9DE6h999FGQx3NPjBTQ3bKap7Kas9ErsZeoJKhHWXQDosYCEdMaVa1G81wHWidPnhzqC9544w2TNkkHAa5kKaCnBM6cOdOz0PXoX7wKE9eyXHTRRaLZhPR0Ja7kKKD9lfZdgwcPjrzQnocL5HZDFh0uoMlhbTk53aWcPXu270kW+gxNjeA+7ktPvmAjVuR1HfoL1NOqqUm8NmJFZS+FH6L5MDVNit/hAnEty4QJE2TatGlAa+jWGe0DHWh95ZVXPF9k6+tK2a5uxNJE9WzEirb+oni6elp1/PO6KhkbS9lL4d91ST6ufV0QXfRkJR1PgNYoLDS6Zzqe1iFDhni+JOpxuqaHC5RaVolOap5cjQKEBxSrx0asaiwqOb8lPCA5dVWrkpYax9iIZa8JsgfUykKje08swgNy52YXeVqVlPW4Vb+rkoZZqrFHJzVPrkYBoBVorcZ+kvxboDXJtRdN2UuNY5WMjYUlLXdS7PWlcS0LG7Gisc2onwq0Rq0wzw9FAaAVaA3FkBL4EKA1gZUWcZGB1nyByR4QscHF6PFAa4wqg6J4KwC0Aq1ZbR9Aa1Zr3vu7gVagNautAmjNas0n7LuBVqA1YSYbWnGB1tCkTM2DgFagNTXGXOaHAK1lCsbt9VEAaAVa62N59X8r0Fr/OohbCYBWoDVuNlmr8sQCWqNMeaWpiZZbbrlmPUl5VSvTCvc9tUp5VWgvhV8RdSoN532aSibsspDyKlybrNXTgqa8KtdeSHlVqxoM/z1hpLwq114KvyLMlFf1KAspr8K3y1o8MRYprzhcoBZVnex3cLhA9fXH4QLVa1iPJ3C4QD1Uj/c7OVygsvpxJ4vncIHKNKz3r2JxuAApr+ptBvF/P+EBhAfE30qjKSHhAdHomuSnEh5AeECS7beassciPABoraYKs/FboBVozYalF38l0JrVmvf+bqAVaM1qqwBas1rzCftuoBVoTZjJhlZcoDU0KVPzIKAVaE2NMZf5IUBrmYJxe30UAFqB1vpYXv3fCrTWvw7iVgKgFWiNm03WqjxAa62U5j1VKQC0Aq1VGVCCfwy0JrjyIio60Aq0RmRasX8s0Br7KqKAqgDQCrRmtSUArVmtee/vBlqB1qy2CqA1qzWfsO8GWoHWhJlsaMUFWkOTMjUPAlqB1tQYc5kfArSWKRi310cBoBVorY/l1f+tQGv96yBuJQBagda42WStyhMLaG1sbFzi/uBcCizR0zbcJ1nZBPn555+ldevWnlrpc/RqaGhovme33XYTHQS4kqXA4YcfLvpvs802Kyp4lPZS+LLc6W3mpCq3TdXKdqsty6RJk2T27Nlyww03JKvyM15a7a/0cI277767rL6ulL3MmDFDxo0bJ+PHj8+4wsn7/N/97ncyefJkz4JXMjaWspfCvye937322mtljz32kF69eiXPADJcYoXWF154Qc4991xPFaIepxtSk6f1w2HSo7fIXVPOls4qZ+H/n2FDq/bT8bQWK6gDU6tWrQxE2y6d+Omxs87E7sEHH5SpU6fKddddV211FP8e2w9f06YnJtLTmjV7ePI0adjn1qYa6y5DG6fI2WYQiObC05qva2Ff56X6hx9+KJ07L62Y/v37y7bbbhsNtGbN/qMxc+tTY+FpBVprWOMJfRXQCrQm1HSrLjbQWrWEET/gSTmtx/vS33FWRPw2fTzQCrTWwMxi+QqgNcxqKTG7+nBYD+nSb+rSN576hCzp/7706NJPmv5L7j+6Zujumbvee8veBZ7bD2XYUreu7PdYqecufWX3oY1yl/ReVoYjT5Xu4251vb/pvoEDRZ5bfZnH2EOjou/RMkZ0Aa3JhlarrWh7CWr/2laaVzGW2b56s/Ke7WXThbZvbX9l2H9e2U+VJ5bcIlFZfxqhtSx7aHR5MUv0hXWxh1xf3eP9brJJv36ivlbtZ6dE6WYFWos6w6R5WlNl/1obNewPgdYwIatoEDY9mDTqDDwPaHMz84aJclBjNxlsG4glP8zgydMaZOJBS+SWLu7/3jRwDz5c7r/ECUloem7zAJo/uOeHK7jv9bvPk1hdEFH43jBFXfosoDUB0JoHoCVsX200r024bNBm/9sMlXdvc+zc696gNl1OO7HZsv5+sHRrWgI2A9DMS5ZOLCO4EgutYdhDXv8m4tsX5ibwZ+fZTo3swTgYpGnikm8bEZiDeSSe1nxlYwmtWbF/qW1/CLSG2auUimPJg9qcV/VZN3C6BmK3Z6GpfGb2vt9jOc/UTLnEQGnBwN3cQNzxVAUwWjQjcu61QKu7wTngXahV4fdEGMcFtCYAWv3iuW22kgcYJexfvf9X/LvY9jU8zWqHQW3fNIrmVQvjICucfBbaf41j1RMLrWHYw0mbSL+TnVjRpW3Aty+shz0otE48qHnS0gzW0cxhgFbLmB1LaM2K/de4PwRaawWtttm4H7S6OkF3EbVDbI7313CCv2un7jXLLxiMPT0C/p5WaydcY+8C0JpgaPWyFT9otdh/ke3rJMlM8Gz2H9T2PaDVNeAU2X+NO+nUQWs59qDQ+voyIPTtC+tlD0Cr7yjq3vxku1E3i2qmoBYtWng+p9xNp14PisVGrLTZf437Q6C1ltDqDMTGaN/19rTqYN7lfjnceC518O0iMy/JhQfkzdybBmV3p+48t9njaRm4C8vQ/I6l8bHNnia/QVs1c3fURe8NU9SlzwJaEw6tNrvzgtaS9l/glQ1i0772Wu6krWAJWJ89uNvSMKDwTd+k6FP7nzJliufTKxn4X3vtNRk6dKhJexX65bfq5FUXNnvQ8IDdA/aF2n/pJKYu9pAL9zIrYIQHFNoS0Nq0euOMqam0/2XhUoYNIuwPYwGtCxcuzMvTqkav7n6vVD5Oo5g3b560b9/es7+15Wnt2rWrzJ07N/Q+2jzQNzxAO7N9TKC+nHqqnHpr7v/6u0ecno58to1YeaV2BtpLZGaXguc+4QBu4RKppQzm3jKXR005vJ4VjbSap/LMM8+UbbbZxvqCqOyl8GVB3hPknkpst9qyPPTQQ/Lmm2/WIeWVh63YYrSdiZOv/bvtNaBN+9prBfZfw40HDrQ+//zzZfV1pezljTfekJEjR4oOAqFf5faF2g952YNtI5a1L9RJd53swWWvtdqINWvWLM9qq0f/4lWYuJblwgsvlB49etQh5VWZ/WES7L+G/aH2VzqOXX755Z72H2QMDnKPl+02LFq0KA9a9WGaHLZly5a+fanCpwake12LFy82SeDdhxR06dIlOmgNvefngY4CCq19+/Y1efVsg3FU9lL4rpytGnvyy40a17JMmDBBXn/99WigFVONTAEHWl966aWy+rpStqu2MGLEiGg8rZGpwYNVAR33cofyeIpRydhYyl7S1u8OGDBAunfvHg20YqaRKeBA61VXXeX5jqjH6fQcLhBZNfFgwgOKbaDcOK9IDxfARCNTIJHhAZGpwYMdaPVbMYzrkryt9ioJbbEBtPsgFS8rqVlMK2YamQKxCA9IzeECkVUTDwZagdastgKgNas17/3dpLzK1yZ22QMw2cgUAFojk5YHh6kA0Aq0hmlPSXoW0Jqk2qpNWYFWoLU2lha/twCt8asTSmRRAGgFWrPaMIDWrNY8nlZHgXJDoQgPSG+bAVrTW7ep+jKgFWhNlUGX8TFAaxliZeRWPK14WjNi6kWfCbRmteYT9t1AK9CaMJMNrbhAa2hSpuZBQCvQmhpjLvNDgNYyBeP2+igAtAKt9bG8+r8VaK1/HcStBEAr0Bo3m6xVeWIBrQsWLCg6XCCIAKWSFtue0a1bN/noo4+CPJ57YqSA5mk9/fTTPQ8XCFLUSuwlyHMruaceZZk4caK89dZb5GmtpMLq+BsHWidPnhxqKfRwgVGjRkVzuECoJeVhhQp06NBBZs6c6SlMPfoXr8LEtSwXXXSR9OzZkzytCWteCq3adw0ePDjyknseLpBLxl50uIAmh23VqpVvoWbPni2dOnXyvEefoYcLuM801vsjOxErcgmz+wL1tOrhAtttt12RCJruJCp7KXyZ5gLUQy/8DheIa1n0cIFp06YBrQlrRg60vvLKK2X1daVsV49xHT58OIcLJMwetLjqadXxz+uqZGwsZS+Ff096v3v++eeb8aRXr14JtIDsFtnxtA4ZMsRThKjHaQ4XyK79Bf5ywgOKpSp3Ry2HCwQ2t1jdSHhArKojFoUhPCC/GsjTGguzrEkhYhEewOECNanrRL8EaAVaE23AVRQeaK1CvJT+FGgFWlNq2iU/C2gtKRE3xEEBoBVojYMd1qMMQGs9VI/3O4FWoDXeFhpd6YDW6LTlySEqALQCrSGaU6IeBbQmqrpqUligFWitiaHF8CVAawwrhSIVKwC0Aq1ZbRdAa1Zr3vu7gVagNautAmjNas0n7LuBVqA1YSYbWnGB1tCkTM2DgFagNTXGXOaHxAJao0x5pamJlltuuWZZSHlVpoXE5PZapbwqtJfCz486lYbzPk2bFXZZSHkVE2MusxhBU16Vay+kvCqzImJ0exgpr8q1l8LPDzPlVT3KQsqrGBl0GUWJRcorDhcoo8YyeiuHC1Rf8RwuUL2G9XgChwvUQ/V4v5PDBSqrH3eyeA4XqEzDev8qFocLkPKq3mYQ//cTHkB4QPytNJoSEh4Qja5JfirhAYQHJNl+qyl7LMIDgNZqqjAbvwVagdZsWHrxVwKtWa157+8GWoHWrLYKoDWrNZ+w7wZagdaEmWxoxQVaQ5MyNQ8CWoHW1BhzmR8CtJYpGLfXRwGgFWitj+XV/61Aa/3rIG4lAFqB1rjZZK3KA7TWSmneU5UCQCvQWpUBJfjHQGuCKy+iogOtQGtEphX7x2YOWnfaaSd58cUXY18xFDBfgTPOOEN69+4t2223XZE0mnpFU1G1bt3aV7YPP/xQOnfu7HmPPkPTo7Vo0cLznp9//llatWpl0lHZrjiX5eGHH5Z//OMfMmjQIMwrQQrojuc+ffrII488Eqrtvv7663LHHXfIX//61wSpQVFVgVLjWNb7Oi8rcevyl7/8RbbYYgs58MADMaoEKfDQQw/JjBkzfMexqMfphlpuxNpss80MtLZt2zZB1URR99prLxk2bJh07doVaG1SoNyG+eyzz4rOUv/2t79hUAlSQDtozSk5adKkUKF11qxZ0q9fP3nyyScTpAZF/fbbb2WXXXYxE9AgcGa7J+0T9CC6XH755bLOOuvISSedhFElSIFbb71V/v3vf8vAgQPr5lyqKbT+4Q9/kFGjRkmXLl0SVE0UdfPNN5fnn39eVlllFaC1QmhV+Pnzn/8s6nHlSo4CzzzzjNx+++1y7733hgqtX331ley5557y5ptvJkcMSipBJht4Wu2G4tZF4UfbwIUXXohVJUgBnWystdZacsopp9QPWhsbG5e4357zvIous7pPsrKVTj1NfkvC+hy9Ghoamn9+3XXXSa9evWT33XdPUDVlu6hff/216OECN910k1WIKO2l8IW509tMaIDbpmplu9WWJXeIh5x11lnywgsvZNugEvb1uoT//vvvy8knn+xZcltfF8ReTj/9dHnwwQelTZs2CVMlu8VVj7uGiqiX3OuqZGwMYi9J6euC6DJt2jR54403ZPjw4dk1pgR+uYZK9ezZU7beemvP0kc9TtfU06qnAml4wNChQxNYXdks8j333CP//Oc/5YorrrAKEOc4Uq8aq5cn5LjjjpPTTjtNtt9++2waUwK/+uCDD5YTTzxR9t9/f8/SV7rce8EFF4iGTOmkkCsZCuigreFS++23n2eB69W/2AoU57LoHgf1XPvtY0iGVWSjlNrPbbrppvLee+/Vde9JTaFVP/rYY4+V8ePHZ6OWU/CV5513nujArbMr2wW0Bt8Upl61jz76SM4999wUWEb6P2H+/PkmnvWSSy6JZBPhq6++Ko8++qgMGTIk/WKm5AsPOuggeeCBB3wH7TiDYmE1VDrhcj+n0jHg0ksvle7du4uGDXLFX4EnnnhCdAPpxRdfnB1o1WrRmFZdKu3fv3/8aynjJdSlbI3nu/POOxO5Yz9unlYtj27iUE01bQ5XvBVQr9ree+8tG264YSTQql+v3vdTTz1Vdthhh3iLQenM5GKllVYy2ST8LqDVrk6hLjop1OwBGirAFX8FttpqKxMas+aaa2YLWrVqjjnmGBk5cqT89re/jX9NZbiEGsenXkEdtJOYZiqO0PrKK6+IzlivvPLKDFtW/D/97bffNimpNOYuSgiZPXu2XHvttXLzzTfHX5QMl1B3TGscq2b/IL1fviFU6mnVp+heCY3p1hVYrvgqMHr0aNFY7RNOOKHuqSlrGh7gVInuGtxjjz1k+vTp8a2ljJdMJxbakey8886JzY0aR2jVMt1yyy3ywQcfyPXXX59xK4vn5//www/So0cPeffdd00Bo4RWff7jjz8u48aNk7vvvjueglAqE3v83HPPGWAFWsODVn2SxoxriACx3fFsaGPGjDF7kXTCVs9wEkedukCrvvzHH380S2Ivv/yyWXLhio8CCqy6SWSTTTYxs6ukJvSPK7RqudTbqh3B1VdfHZ+KpyQmU4AOnrqz2dkgEjW0quxvvfWWyYUMuMbLCL/77jvZcccdZerUqbLCCitwkIqleqrxtDqPGzBggGhqRcA1XvavG7F1s9zgwYNNwTINrSqAbko555xzjNdV079w1VeBxx57zGwy0Di73XbbzRQGaLXXSRi66AxWvTeaYNtro1t9LSJbb9cMGbozduzYsXkfXgto1YFfJzK6WU/TAu67777ZEj+GX3vjjTea/NS6MrL66qubVJCc/ldcUWHpoqFomi5JN/+2a9cuhhaRnSLp8dWa5Uknau6NorGA1oULF+bladVqUSP0imF0qk2PN2zfvr1nLQbJXei8R5dJ9YQR9expwu1u3bqRu7AG7UPB69NPPzXLk7l8vabedca79tprN789iC0EuSdMe/GTJmllmTx5svGuacLmjTbayNi/6r/88svXwAKy/Qo93Ug9nHqAwEsvvWQma7pUWXjV0nZ1c4p63zVPtsaS60YwHcB18OCKVoHvv//epPd76qmnzFGV22yzjXGquK+k9S+1tN0wmEHz4GqM95Zbbmk83Hpkrk4YuKJX4MsvvzR5xHX1W3lMWaAwp345XBfVON2waNGiPGjVRqmznZYtW/qqNHfuXN8d0IsXLzZJ4P0OKci92/xdjV3jXNXTp4OHboL45ZdfjOGqN9YrmbxTwCAdSakq18oo9R6/e/R79Vv0nlKNN+qylNJFY7J0cFSNNeWIwpLGFOlkofBy15Gt3PWyl7SVRU9G0qNe58yZI5oKScFVtQ1yVWu7peylVBn0/dpn6HJ6vcviLqtXWTQ/5JQpU8xgqKfzqe0feuihnn1V2H1dENtVeHr66adl5syZxh40REcnNj/99FPs+xf9Pu0Pg+TfjIO9aCYPDQfRMU9jVzWOX/OwFm4Upq/zTu8XNjOo7Wt/+Mknn5i60ZUo9f7FwV6c9utVFqffVg4IUt5684s6H7U/1EmaborTvtDrAKhyuS5IX+c1vnj1u3WLadWC+i2x6t+++OILUWgq5WVQsO3QoYPn2Kpwpgbk14nmPM7Gu+W3S16f41WWQw45xKTzUvd5vcviCOGlizaktm3bmoFQQdtPlzCWwbU8tVpiTcvynZ5EpqnhamG7pezF+btXWXRWrkH6uhO42nZUbVncnYBfWZy0LUmxF/UCanylDtxx718+//xzOeOMM8zmsqj73TDsRftDx5tH/H7xMBqHMUBtSoEpCf3LbbfdZmBVV238mCEM23WeUY0uOlnTCXFSxunYQqsKGFasTC3iMHRTmZ5PrsajpmpYtAAAIABJREFUnhyvqxZlcd4NKNprAV3C1eW1114z8U8KKXEY4Jyvoyz2eo5aFw050g016iljUlxcB4wBdrtMiy6aJk+hVY/tTsqkOEnMALQ21Va1HTnQ2toT1JMyg3M+IC2dp/M9UU/+gNb/AGeu1g+0fojjwjIaZMVZALRGm3EIaAVaCQ8o6GCB1vI8IUAr0Oq2GKAVaLX1IEBruCtc7qdV63TD05pTIGsDP55WPK3uTiRq72acOiygFWgFWpcpkBU4q9VKTpz6uiBlwdOKpzURJ5AArUAr0EpMq1eMTJY8IXha8bTiaSWmNaqj3wkPIDyA8ADCA4wClXqI8LTiacXTiqeV422X2gCe1og9rbm0OkWHC3h5C9z/vVTS4iDPCOueOJRF85qNHj3a5Kv0O3QhrG8O8pw46OKUk7LYaywNumgexZEjR8pdd90VxCwD3ZMGXQJ9aJk3JUGXzz77THr37m2yB9TqSoIutdKCcbq00lHai6a+1OwBffr0KV2Q3B1RliVQAVw3JaEsDTnIKjpcQHOjar46v2v27NnSqVMnz1v0GZqs3y8HqMa9ao4wPzdyUsqiJ3foOb36TehSbBbYi72ppEEX9bQOGzbMpHxLU5t2aiwNdeS2vqjrSMMDjj76aAOtWRoDsBeYQW1gxIgRBlr79u1r8szDUvljn+73qEYXwgOa9Kw25oyYVmJa3U2TjVjep+eQu7B4ApMmeyGmlZhW2xS90vAj97OqHaedZ0VZFsIDIg4PyM0IijytDCrlDypAK9AKtLIRy2vpKQmDrVP2agEaaAVagVY2YrERyydWIcpZU9COHGgFWoFWoBVoFQFagVagFWgFWoHWZgWq9YQ4D8paLt1aLA0FneSkqSxkDyB7gLt7BlqBVqAVaAVagVag9edoY2WA+coGW6AVaAValykQh5W/NE2KiWmlf3HbABux2IhFntaCCREeaPsM0UsXoJVBBWgFWsnTutQG2IgVrXMp0pRX6h5ebrnlPH2kUadecV6s6RWiLks5Ka+iLovz3UFS9VCWYvOshb2kqY7qlfIK242n7bpTXlFH8ayjWo6Naerr3LXpxS9RpLyiHS1TvoHDBXziDsr4E4cL+IuVhKTFZVR3aLemQRcOFwjNHEo+KAn2wuEC8zhgxmLJSbDdkg0wwA0cLhBApAC3eNkL4QGEBxAeQHiAUaDSWDzCAwgPcDchNmJVFhvu1jBLKdKc705LWBbhARGHB5CndWmTqbaTIOUVKa/cg06WMjwArUAr0LpMgUonf0BrOtoR0Aq0ShICvIFWoBVoJU+r16pXtZNi57lJACI8rXhabe0gCbYbhtcXaAVagdaCHiBLXjy8D/H3PuBpjX8d1bIdAa1AK9BKnlbytPoE7sZhBoenFU8rnlY8rXhaORErDuNRkjzzYXg3nWfEwaGDpxVPK55WPK2hxB3TkUczscDTiqeVmFZiWpMQxleLMQBoBVqBVqAVaG3RwnOtod7xkkAr0Aq0Aq1A61IbAFqBVqAVaAVagda8VpCW9DhxWtYMqyzEtBLTSkwrMa2RxbQ2NjYucRtYLgWWaFyI30lWer96d/xmVvocvRoaGjw9RL/++qs5qcrrniSV5aijjpKhQ4dK27Zt0cVS49iLvRmkQZcZM2bIHXfcIcOGDZM0tWmnxtJQR27ri7qO5s+fL2effbaMHTs2U2MA9uJ9+mWWmGH06NGi7HL88cfDUpZhr1qu43CBJlGrXWJlI1Y08ZJum6+2jpxnsVHCDtCV6kJ4AOEBhAcQHkB4AOEBzuSkVatWxiFpu6rdLAe0Aq2ciFXQslh6tkOtly5AK9AKtAKtQCvQCrTmwhR0oExCY8DTiqfVPXBXO5t0npUEgAZagVagFWhNwjhdi9U2NmKxEQtoLXB8ZQmICA+IPxABrfGvo1q2IzZisRHLtlZTafhRLW03DGcB0Aq0Aq1Aq1GAmFb7sn29dQFagVY8rXha8bQSHlCLcZqYVmJaiWklptUoUKknBGgFWoFWoBVoBVqBVmJara41wgOi2ZUYxtKQ84ws1RHQCrQCrUAr0Aq01gRaFy5cmJenVV+qA65XugKnac6bN0/at29vX6/M/dcgeVqDvCfIPXEoy6677ip33323yVOJLsVmEYc6wnbtsF+tLm+88YaMGDHC2H+Q9hrkHuzF3rUmQZfPPvtMjj32WJk8ebL5CL9c3UFsIcg9SdDFqdGsjY3V9i/ulhDEFoLcE6W93HjjjYZ/+vbtG6g/jLIs5WqXhLI0LFq0KA9atcIVvFq2bOkJpPqHuXPnSseOHT3vWbx4sems/A4pyL3b/N0vn1dSyrLzzjvLmDFjRL8JXYrNAnuxN5U06PL666+bowvvueceY/9padNOjaWhjtzWF3Ud6UasY445Rp599tlMjQHYC8ygNjBy5EgDrX369IGlLMNetYxJTGuTqNVuZiHlFSmvCme1SUnX5pSbmFb7xKJSXdxPq7Z/qbaOalkWsgeQPcDWkrLSjsgeQPYAsgcU9ABZipes5WDrvCsJuVHjpAsxrcS0uu0RaAVagdYlctZZZyUmz3ySJsV4WvG0kj2goIcFWu0eR07EKk+XOE0salkWoBVoBVqBVo5x9YyerTxVT5gdOeEBhAcQHjCOXLoe/RThAXZhsqQLKznZgHnCAwgPIDyA8ACjAANcPAd+wgMIDyA8YJkCWYnddL6YcLX8rCxAK9AKtAKtQGuLFp5rDfWGeaAVaAVagVbytC61AaAVaAVagVagFWjNawXEHcc3vpaY1mwsg+NptcMZ0BoxtC5YsKDocAGf8NHmP5VKQhvkGWHdE4ey6OEC1113ncnLtt5664X1aVU9RwcPylIsIbrYzapSXWbMmCE333yzDBo0qCp7df/4888/l7XXXju051XzoErKopsQdNk07KuSsoRdBud5XmX597//LZdddpncf//9Ub266LmV2m4UBaQs4fYvSaujO++8U9q0aWPytAa54sAvTjmTUJaGHGQVHS6gyadbtWrlq/fs2bOlU6dOnvfoM/RwgRY+HiL1lughBn67zJJSlsGDB8ukSZPkl19+8fUM60CmupQ6JcbvHk1crP9KnVqmy8Z+SzaUxW6+6FKeLtpGNY5P/zesK8ipNmG9q9RzKinLjz/+KCuttFKpR5f990rKUvZLAv7AryyrrLKKtGvXjr7OoiX9S3n9i/vuUtrFYWzMOQJl9OjR0rVrV9MnwlL59a11WI0upLxq0rPecYHuaqUs9k4NXdDFUSDu4QE66XSO69QyY7vYblJst7CmsF1sN062C7QCreRpLeiT4g5EDCpiknbrcbF+Kzn1HGyB1vjXEe2IOvJaVIh7/5Jl2wVagdbYDvxZbphxmtlSlvI31gCtABFAlK8AqcDsFoEu5ekCtAKtQCueVqMAnWd5nacfzAOtQCvQCrSqx5ZUYPl2UG1eX6AVaAVagVag1YswKoR5oBVoBVqBVqC1uBUArRUOKiw9M6gwqDCoRDWoAK30L/Qv9C9R9S9Z5pdIU15pSibdLOHXeGuV8oqyFNeCpp1AF3RxFAiSxg57CWYv2u9pzmZ3CAF9XbF2tUx7iO0Gs93Cu6gjO8GgS310aeBwAZ91wQr+lITkvBV8VtU/QRe7hOiSTl1WXHFF0XyNYV/YSzrtJWw7cZ6HvWAv5dhWEuyFmNamGq1nepwsu/rdnqg4pzCijlju9VsxKrRdwgOwl3Lshf4Fe8Fe8hXw2hgMtAKtbMQq6C3I0ee97MPEwr7EDbQG0wU4A86As2BwhkPHnmoQaAVagVag1ShAyiv7cFqJLnhagTPgDDhjI1ZxKyB7AIOtZ8hKJYMtnhAGWwbb6gdboJV2RDuqvh0xHtGOCm0ATyueVjyteFrxtHpO/SrzQAOtDLZAK9CKpxVPq7UfwKMY3rImM1sGWwbb6gdboJV2RDuqvh0xHtGO8LR69CRkD7ALgy7o4ijABjW7Ldh0AVoZbIFWoBVPK55WPK05BaoNZAZC7LsS0QVdbB1MJSs5QCvQCrQCrUBrBNDa2Ni4xP3YJUuWGCjyO8lK71cPXOvWrT0jwfQ5emnn7XXpiTF6SonXPZTFrh26oIu7TdGO7D1MPXXp0qWL5PrW5oLVsyyF6lCW+NkLdSQCM9jtEl3ydWEjVpMeLIOzDI6nFU8rnlZWctSRYrtY4UIXt13ADPVhBqAVaCV7QEHbI3bT3hmhS3BdCA8gPIDwAMIDCA+IIDwg53rOCw9gNslsktnkf0x4TIsWLTxDW5hl12eWnRRvONAKtAKtQCvQCrRa+4FKNkoUPggIAUKSAkTYbvyBCGiNfx3RjqgjJhbJm1gQHkB4AB5FwgOMAkz+7ENYJboArQARQJQ8IMJxEf99DUAr0Aq0Aq1Aq2cgSGUwD7QCrUAr0Ep4AOEBhAfkFCDumLhjd0MgtCV+oS1AK9AKtAKtQGsE0Lpw4cK8jVj6CoUir7QfThHmzZsn7du39/RPBMktFuQ9Qe6hLPZqQBd0cRSgHdltISpdVlhhBcn1rc0vDfKeIPfQpmnTtGm70wJdsqFLw6JFi4qyB2jy6ZYtW/osmInMnTtXOnbs6HnP4sWLzaEBfocU5N5t/u6XF4+y2Gcq6IIujgK0I3s3VE9dtP/U91NHjAGF1snYaG+v6IIubgW8GJOY1iaVWGKN3xJrYYmoI+rIUSDuOWMJDyA8gPAAwgMID4ggPIA8rUtFBYgAoqQAETAffyACWuNfR7Qj6oiJRfImFnha8bSSPaCg54q7F4/BNv6DLdAa/zqiHVFHQCvQ2qwAA7+9OaALurgVqCQHKINt/AdboDX+dUQ7oo6AVqAVaP0w/sl5WQanjmydNQBtH8Iq0QVoBYgAouQBEWNj/MdGwgMIDyA8gPAAo0AlcIa3yg5nQCvQCrQCrWzEKm4F1eaZB1qBVqAVaAVavQijQpgHWoFWoBVoBVojgNYFCxYUHS7g0383/6lUkusgzwjrHspiVxJd0KWcNoa9hGcvK664ouT61nLkD3QvdRReHQUSvIKbqCPqqByzwV7Ks5eGXJL6osMFNCl2q1atfHWfPXu2dOrUyfMefYZ6G1q0aOF5j85CNAm33+EClMU+U0EXdHEUoB3Zu5h66qKHpugBINQRY0ChdTI22tsruqCLWwEvxiQ8oEkl8rTaGwy6oIsbvBTG/CaiWbaXk046SUaPHm3kcocHHH/88XLzzTcbR4DfBJ2lRPtEFF3QxVEgy/0L/e5SKwBagVYgpGBMIC2Zt+cSaC3WxrEX5+jr9dZbTz799FNx/ld/oaECQGuxdkAIk2ImxfHfsR+nOgJagVagFWg1CpA9wA4QQXXZZ5995Jlnnil6yG677SaPPvoo0GqRF2gFWuMERJQl/gANtAKtQCvQCrTa2aFsXTQsoPDKHZXNMdEe+gKtQCugGH9QjFMdAa1AK9AKtJYNZ16Ml3UI+cMf/pDnbVUv67PPPgu0Aq3NChB+ZDcGdEEXtwJeK1xAK9AKtAKtQGtInlZ9jNvbql5WvbIO80xylikAnAFnQeAsTt7NOJUl0pRXulNWN254XbVMSUNZimtBU4ygC7o4CgRJY4e9lLaXvfbay3hb1cv69NNPmx/Q13mDSq3SHmK7pW3XVkvYLrbrKBAHZmjgcAEfF0sFfyJRsF00dEGXcppT0uxFy/vll1+aLAGaOWD8+PFy2GGHmQwCv/nNb2SNNdaQdu3alSOB9d6k6VL1Bwd8ALrQvwQ0FXMb9pJceyE8oKnuWL6zGzG6oIujAMuaS5V4//33ZerUqTJnzhyZNm2aqIf697//vYFT/aenYa2//vry8ccfG4j96aef5IcffjD3bbDBBtK9e/fm/9Xf6VXtedzUEZtZbD1V0MwX5ADNV4++ztu7XO+0h0Ar0EpMa0H7pMOKb4dVLzj7/vvvZcKECfLqq6+a1FUKnjvssIOBUwVRvzAop8yLFy82oPvJJ5/ISy+9ZMBXl9t69uwpBx10kPzXf/2XtG7d2tdhBITY5UEXdGHyl43DS4BWoBVoBVqNAgz8xQO/nnClp1mts846csghh8i+++4rq666qi9YlvPHr7/+Wp544gl58MEH5ZtvvpETTjhB9AQtr4s6As6As2zAWb0m6J07d/bsf+Lg0AFagVagFWgFWgtsYOTIkTJq1Cg58cQT5fDDD5cOHTqUw6IV3ate2AceeEDuvPNOOfPMM82/wgtoBVqBVqC1sBVkKYwPaAVagVagFWhtsoGHHnpIbrzxRtHTrfr06WNCAWp96QCkZXjqqafkrLPOkgMPPLC5CEAr0Aq0Aq1Aq0sBNgT8P2uviC7o4jaMLM1ss7BMpTv/1bOpu/2HDBkiyy+/fK1Zteh9uhR3/vnnyxdffCE33XSTCUsAWoFWoBVoBVqBVpJ/ewzRwJldGHRJjy6TJ0+W6667Tq6++mrZdttt6w6rhQXQDVv9+/eXgQMHSpcuXSTuMWdZmOT4GQkTCyYWTCyim1gQHkB4AOEBhAdkNjzgiiuukPnz55vl+Lhfp59+urRp08bAtdcVh40SQCvpt2z2CcwD82HAfENjY+PScwabLj12UJfCS6VwUU+TX3oW5/hC95GGhVX266+/mhOZvO6hLA1WK0cXdHEbBu3IPhiU0uWCCy6QXr16yZFHHhl3Xm0u39ixY+WRRx6Ryy+/3LNv0D/Q7+bLw3hkN3F0QRe3AkngOjyteFrxtOJpzZynVTdaDRgwQHbaaafEAKtTUA1nGDFihDz88MNFZcfTaq9OdEEXtwJ4fZPr9QVagVagFWjNFLTqhqujjz7aJPVP6vXiiy+KZjoYNmxY3icAZ8AZcPYfDukoaAZp2kgOtAKtQCvQmhlo1QMCdEf+dtttl1RebS63ns41fPhwuf/++5v/G9AKtAKtQGthKwBac4rgXk+ue90pOQMcA1yWBrizzz5bDjjgANl1110TD6zOBzz99NMyadIkuf76681/ok3TprPUptMMZ4zT9g2NeFrxtOJpxdOaek+rxoAuXrxYzjnnnNQAq/Mhmq5rhRVWMIchAK1AK9CKpzXNMA+0Aq1AK9Caamh98803jSfyvvvuSx2wOh+kWRA0G8Imm2xiMr+0aNHC81vJMWyXBl3QBe9m/NO1Aa1AKwMc0JpqaFWgmzBhQmqBVT9M03sdfvjhoimxgNbiqsYDjQcaD3Q6PNANCxcuzMvTqhWrQbuaP9XvmjdvnrRv397zliD534K8J8g9lMVeDeiCLo4CWW1Hf/7zn2XLLbdMVC7WSun6nnvukXfeeUcuvfRS3zytQWwhyD30L/QvWe9fSnES7cjeRqrRpWHRokV50KoP01l7y5YtffvOuXPnSseOHT3v0fgxTXDtd0hB7t3m714VT1nsEwd0QRd3w6Md2buh6dOny5VXXikTJ06slAMT97v99ttPLrvsMtl00009y4692KVBF3RxFIBf7LYQB10IDyA8gPAAwgNSGR5w2mmniWYM6NatW+Lgs9ICv/fee3LTTTfJqFGjPB9B7KZdGnRBF0cBwknsthAHXYBWoBVoBVpTB63PP/+8jB49Wu68885K+S+xv+vdu7eccsopssMOO1i/ATgDzoCz+G84oo5IeQWcAWepgzP9ICCkGEIOPfRQueiii0w8a9au1157TW644QbPbAnYC9AKEAGttlaQhPz7eFrxtALzwHyqYF5TXN17773NCfezBq36vf369ZPjjjtOtthii6LPB1qBVqAVaAVaGfhTNfA71ckAxwCXtAFOj2ndaqutTAqorF7jxo2Tt99+W4YMGQK05hSIQyxe0toRYwD5jgs7jzi0IzyteFrxtDLhStWEq3PnzvL+++/7Zi5JO8z+8ssvJoPArFmzgFag1dPc4wAhwDxe33K8vkAr0Aq0Aq2pgdbHHntM3nrrLfnLX/6Sdi4t+X2ao7ZHjx6y11575d3L6gmrJ4AioFgOKMbJXhoWLFhQdLhAyd4wd0OpxNJBnhHWPZTFriS6oEs5bSwN9qJHme68885y8MEHl/Ppqbz3gQcekFdeeUWuuuqqSL4vDfYShTDoQr9bjl1hL+XZS0PuIIGiwwU0yXKrVq18dZ89e7Z06tTJ8x59hh4u4HcGti5N6CEGfocLUJZiifVwAXRBF/fsl3a0VA31LD788MOy1lprlTNupPLeTz/9VI444gh56aWX8r6Pftde3eiCLo4C8IvdFuKgC+EBTXXDkpndSNEFXdxwHOdz7fWUvpNOOkmee+65VEJoJR+14447ypgxY/KO3KZN06aT0qYLawrbxXaBVqCVmNaCfoDNCd4elzhDqx7XOnXqVLn66qsr4btU/qZ///6i4Lr//vs3fx8DPwM/0EpMq60VkKd1OVJGFBoGQJRMIGLGH/+0Qddff70Ja+rTp08qAbSSjxo+fLgsWbLEHGfrXEAr0Aq0Aq1AK94qo0ASZip0WHRYSe2w/Gz3zDPPlH333Vf22WefSvgulb959NFH5ZlnnpERI0YArThRimwcJwpOFLcCSeAXwgMIDyA8gAlXKiZcp59+upxzzjnSpUuXcAD0w2HSo7fIXVPOls5mRpr7/7v0k6ndh0qj89/CeVNkT9E8rTfeeKP5h6eVlb9CQwNagVagtUkBGgONIWmNAQ90sj3QO+ywgzm+tV27duFAYB60PimnNQyWbo1T5GxDsMm4/vWvf8nxxx8vL7zwAtCKpxVPa5MCSfAoMh7Zx6NIU15pKivduOF11TLFCGUprgVNX4Eu6OIoECSNXZztRY9unTx5sqy66qrhEKULWmVYD+ky8xJZcsveS73S+v/3m2r+7+5DG2WKkmwe5H6Y+4lx0y6F3CdPk4Z9bl1arlOfkCX933d5cQvuDaf05ilfffWV7LnnnvL66683P5V+1y4wuqCLowBjo90W4qALhwuEOEDoo0gUbBcUXdClnKZWib1sttlm8u6778ryyy9fzqu873XCAdxgupRYc2ECM+WSJbfI3uLywIo7nMAFonn/Xfm1QSZuM1Tevc0JPYgOWhXE9DjXt99+OxxNXE+ppI5CL0TTAykL/Us5toW9JNdeiGltqjt21NqNGF3QxVEg7iE/erDAyy+/7Lu6U87Atsxzup881qOL9Nsk5yFVT6t6TSce1Ox1NRB60BK5pUtTzGvzS7rLUA0naHR5WZv+1n3gQJHnVm+Kl40OWhcvXmxOCNOTsZyLNk2bTkqbLqwpbBfbBVqBVjZiFfQDcYczOnJ7+q3//u//NtDapk2bstjU8+aimNZcVoIncnAqPtDavHHLBaIKrS7INe/zCyUIp/TmKd9++63ssssu8o9//ANoJaa1yLLo6+yNDV3iqwvQCrQCrUDrUo76MNkbsXr27Cnjx4+XddddNxzsK8weYOJSc9za2E0Glxse0OV+Odxs4lKY7SIzT6pNeIAe5XrkkUcamMfTSvaAwoYBnMUXzvCGe2zEyiWeXuKuNj3XXg25devWvh1/0gc4vFXxTxZPHVFHXp2QbbA98cQT5eKLL5YNNtggGmjNPVVDAfaRJ6Sx2+DmjVinqvdV92eVuxFL02e5SxpBKq3GxkZzQtjf//53oBVPK57WJgXgF3sXmQRd8LTiacXTiqc1FZ7Wk046SY455hjZddddw4HWmj4lt6Grx/vSP+T8r3qwgHqfb721KXNB7puIC7RXLLqgC97N+K+2Aa1AK9AKtKYCWq+44gpZa6215OSTT64pbobzsmig9ZZbbpFvvvlGLrjgAjyteFrxtOJpTfwKOtAKtAKtQGsqoFUPFtCUV1deeWU4HJmCpwwYMEC23HJLOfzww4FWoBVoBVqBVi8FCPC2K4Mu6OJWIAkxRElZMpsxY4aMGDFCbrstlwCVyyigp2H1799fNt54Y6AVaAVagdbkQ2suUD9vI5buy9LNWH4nWelXa/yP32YtZ39XQ0ODp0i//vqrOZHJ6x7KYtcOXdDF3ahoR8vU2G+//WT69Omy4oorZh5bf/jhB+nevbtMnDgxTwvsxW4a6IIujgLwi90W4qAL4QFNdUMQvt1I0QVdkuJp1XKecsopcsQRR8juu++eeWidNGmSTJgwQTSu1X3RpmnTSWrT2O5/jBOxRYsWnn1alto00Aq00hgKugJCOOx9YxJ0GTt2rHz11VfSt2/fzEPrsGHDZO211zZ5Whn4GfhtDSIJbRrbxXbdNgC0Aq1AK9BqFEhDfK3ulNeUV+4ToLJKr5tuuqm8+uqrsvLKKwOtudzjeKuKWwLQmtwJelZhHmgFWoFWoDU10KofoocMHHvssQnN1xoOYtvyszpPztJSIsvg8c+7SR1RR7Zez8uJArQCrUAr0JoqaH3qqadkypQpctlll4VDgAl8ysCBA2XnnXeWPfbYo6j0QKu9QtEFXQDo+AM00Aq0Aq1Aa6qgVT+mZ8+ecv/998t6662XQOSsrsgff/yxHH300fLyyy9bHwScAWfAWfzhjDqy1xHQCrQCrUBr6qD1nnvukffeey+TBw3ogQJbbLGFyaJgu4BWoBUgAlrLWZKPk700LFy4MC9PqxZO87Rq/lS/a968edK+fXvPW4Lk8wryniD3UBZ7NaALujgKZLEdHXLIIaKnZLVp06Y612WCfv3111/LH//4Rxk/frxnqYPYQpB76F/oX7LcvwRpI0HuoR2V144aFi1alAetKrImWW7ZsqVvVz137lzp2LGj5z2LFy82hwb4HVKQe7f5uxcgUxb7xAFd0MXd8GhH9m5Ic5RqbKumfsrKpam+dtllFznggAM8Pxl7sUuDLujiKAC/2G0hDroQHtBUNyyZsWQWpyUQyhLO8t0JJ5wg/fr1k2233Tb13KrprW688Ua5++67CfkpqG1SO9nNH13Qxa1AEtIeAq1AKwMcA5xRIAkdVrkw/9lnn8nll18ud9xxR+qh9fjjj5dLLrlEOnToQJumTae2Tbdq1cp3dVZB3O+I+bT2dVnRBWgFWhngGOB9V1zxAAAJhklEQVRSPcCNGTPGAHmaU2BdfPHF0rVrVznssMNIom+ZnuBRxKOYNI9iuRN0oLV1a1/PRBq9MlmpdBpDOEvP2EtxFxHXMJszzjhD9ttvP9lnn31S53F99NFH5emnn5aRI0cKcAacAWd4Wgtbge6DSYsHGk8rnlY8rXhaU+1pdTZ66ilZw4cPl9VWWy014Dp//nw577zzTByrXkAr0Aq0Aq1Aq6UfwNNq7xzRBV1UgTTNbNPkme/UqZM0NjaWTOmXBKr95ZdfZOONN5YPPvigubhAK9AKtAKtQCvQCoR45O0FzrzTb6VlOSZN0Prdd9/JgQceKC+88EISuNS3jDvssIM8+eSTstJKKwGtuZjlzp07e+oFzAPzwHw6YL5hwYIFRYcLBOnNSyXEDfKMsO6hLHYl0QVdymljWbGX3IEq5pjXN998U1ZcccVyJIrFvT/88INstdVW8vrrr8vyyy9ftzJlxV7KFRhd6HfLsRnspTx7acgdJFB0uIAmWdZNJn7X7NmzRZfavC59hh4u0KJFC9/Zrx5i4He4AGUplk+9m+iCLm4PKO2o2B7Uu+alS26ybnK3PvLII779WDmDTy3u1VCAXr16eQIr/a69FtAFXdwKwC92e0iCLmzEaqq7uO56tpkWS/IsybvtAtu1d8BBdOndu7fsscceojlO435prtlJkybJuHHjfB0Besqgn7MgiC6EttgnxeiCLo4CtKPK+91q2hHQCrQywBW0PeLf7J1RWnUZMmSIaKzrDTfcEMsNWnp0op7qtcYaa8jRRx9N7KbFPNkAa2+z6IIuqkCaHF1AK9AKtAKtRoEsD3BPPfWUnHnmmTJ48GADhnG59GCEQYMGyahRo2TPPffMdB351UmWbRddlimQJjhzviqtzoJKTy0DWoFWoBVozTy0OiYwcOBA0aNfTzjhBNlxxx3rxq6a3eD222+X9u3bm2NonQs4w3OWNs8ZcEbmC1ur9urrgFagFWgFWoFWlw288847cv3118s333wjZ511luy+++41g9dnnnlGhg0bJmuuuaacc845sskmm+S9G2gFWoHWVr6bt6uJlwSg4w/QQCvQCrQCrUCrhYXeffdd4+186aWXzI79Qw45RDbccMPQAXbWrFkyYcIEefDBB4139+STT5aNNtrI+h6gFWgFWoHWwlaQpU1hkaa80lRWupPV6/JLSeM0zLBSO1GW4lpQbdEFXRwFgqQ7yaK9aD7X6dOny0MPPWRSAW666abSvXt36dGjh6y66qplQ+xXX30lU6dONf/+93//1xy9etBBB8n+++8v66yzju/zqCO7POiCLjBDbdKH1nsM4HCBsocc/x+QKNiuD7qgSzlNLa728tFHH8m0adPktddeMxkH/vnPf8oGG2wg3bp1k7Zt25rTqfTfaqutJgqnP/74o/n37bffysyZM2XOnDnGi7rKKquYPLH6r0OHDoGliasugT8gohvRhf6lHNPCXpJrL4QHEB5AeADhAYQH+Ix4fkvyCq66vP/xxx/Ll19+2QypK6ywgujJWw7Eqke2S5cuJl1VmzZtit7GrmdyL7uNIkvLvc53s0ve3gmhS74uQCvQCrQCrUBrhdCqP2NQYbB1K0Dcsd0e0AVdnBCOajbLAa1AK9AKtAKtQGuzAnh98fri9f2P2Y/DyXL5HWMcJuhAK9BKwwRagVagFWj9+Wez0U43mtguYB5dgPn6wzzQCrQCrUAr0Aq0Aq1Aq7UVEF9r7xzQpT66AK1AK9AKtAKtQCvQCrQCrU0KxGEZ3KkMypJvlkAr0Aq0Aq1AK9AKtAKtQCvQajKceF1xAGigFWgFWoFWoBVoBVqBVqAVaI0/tDY2Ni5xW+qSJUtEA879TrLS+zWeo3Xr1p5dvT5Hr4aGBs97fv31VxP07nUPZbFrhy7o4m5UtCN7F4Mu6OIowHhktwV0QRe3AkngOjyteFrxtOJpxdOKpxVPK55WPK14WuPvac3NtPI8raT1IK1H4cyLNDDFfTk7R+2Uhy7o4igQh/g3yvJh7CGEOqKObL2m12EUeFrxtOJpxdOKpxVPK55WPK14WvG0xn6SA7QCrUAr0Aq0Aq1AK9AKtAKtQCvHoOX3AyyZ2ekAXdDFrQDnlNvtAV3QRRUgjI8wvqyG8eFpxdOKpxVPK55WPK14WvG04mnF04qnFU8rnlZVAA8RHiI8RJxrX9gK2Lhn7xfQBV0cBViFzLeFhoULF+ZlD3AGFs2f6nfNmzdP2rdv73lLkPxvusRR6j1B7qEs9mpAF3RxFKAd2W0BXdClnDaCvWAv2It//v0gbSTIPV780rBo0aKilFealLtly5a+0Dp37lzp2LGj5z2LFy82hwb4HVKQe7f5uxe46odRlmKJ0cU7ngl7wV4cBehf7N0zuqCLowDjtN0W0CW+uhDT2lQ3LMewHMNyDPkCba2A0BZ734Au6OKszOoStt8JmXof9oK9hGEvQCvQykasgr6EGCJ754ou6OJWAAgBQsKAEJwFOAvKcRYArUAr0Aq0GgWAECAECGGzXGErYBWSVcg4TSyAVqAVaAVagVb7uIQu6NKsALlRyY3qbg7AfH1gHmgFWoFWoBU4A86AM/K0WlsBcFYfOIuTdzNOZQFagVagFWgFWoFWoBVoBVqbFCB+394hxkEXoBVoBVqBVqAVaAVagVagFWiN/4lYCxYsKDpcwKf/bv5TqcT1QZ4R1j2Uxa4kuqBLOW0Me8FesJdyFMBeylGL/gV7CcNeGnLJ2IsOF9Dk061atfJ9/uzZs6VTp06e9+gz9HABv2Nc1dWshxj4HS5AWYol1g0B6IIujgK0I++lLPqXYm2wF+zFUYBx2m4L6BJfXQgPIDyA8ADCAwgPIDyA8ADCAwgPIDwg/uEBS3KX21JJ60FaD7c9sHPUTjPogi5uT7ceR+23qoS9YC/YC0n0ba2A/Nj2vsFLFzyteFoZbPG04mnF04qnFU8rnlY8rXha8T7k9wNxSBnBjJ8ZPzN+EVaVWFViVek/wiqBPe4bXeKpC55WPK14WvG04mnF04qnFU8rnlY8rXha8bTiaVUFiNspL24HbzjecLzheMP9Muvoql3r1q19plv0u17iMB4ldzyKNOWVNjh1sXtdtUy9QlmKa0HTeqALujgKBEljh71gL9hL9ekgaUe0I9pRZe2ogcMFfCeqZf+RBMp2ydAFXcppTNgL9oK9lKMA9lKOWvQvybUXYlqb6o6UNHYjRhd0IVSBUAVCFQhVIFQhvxUwNtZnbPz/XxejuAzZyqkAAAAASUVORK5CYII=;" vertex="1" parent="WIyWlLk6GJQsqaUBKTNV-1">
          <mxGeometry x="110" y="30" width="685" height="716" as="geometry" />
        </mxCell>
      </root>
    </mxGraphModel>
  </diagram>
</mxfile>
